<svg id="Group_762" data-name="Group 762" xmlns="http://www.w3.org/2000/svg" width="78.043" height="62.83" viewBox="0 0 78.043 62.83">
  <g id="Group_566" data-name="Group 566" transform="translate(12.946 6.066)">
    <path id="Path_476" data-name="Path 476" d="M430.5,1456.155a13.829,13.829,0,0,0-4.063-9.841l-.234-.233a14.019,14.019,0,0,0-9.841-4.063h-.106a13.7,13.7,0,0,0-9.735,4.063l-5.545,5.545-5.546-5.545a14.018,14.018,0,0,0-9.841-4.063h-.108a13.7,13.7,0,0,0-9.735,4.063l-.234.233a14,14,0,0,0,0,19.683l25.464,25.462L426.434,1466A14.019,14.019,0,0,0,430.5,1456.155Z" transform="translate(-371.467 -1442.017)" fill="#00b5e6"/>
  </g>
  <g id="Group_567" data-name="Group 567" transform="translate(6.913)">
    <path id="Path_477" data-name="Path 477" d="M403.028,1500.847a3.012,3.012,0,0,1-2.144-.889l-27.628-27.623a1.517,1.517,0,1,1,2.144-2.146l27.628,27.625,27.607-27.607a16.983,16.983,0,0,0,0-23.973L430.4,1446a16.972,16.972,0,0,0-11.98-4.949h0a16.891,16.891,0,0,0-12,4.961l-2.317,2.316a1.515,1.515,0,0,1-2.144,0l-2.33-2.328a16.974,16.974,0,0,0-11.98-4.949h0a16.887,16.887,0,0,0-12,4.961l-.224.225a16.956,16.956,0,0,0-4.9,11.879,1.518,1.518,0,0,1-1.517,1.506h-.011a1.516,1.516,0,0,1-1.506-1.527,20,20,0,0,1,5.78-14l.226-.223a20.016,20.016,0,0,1,28.273-.021l1.262,1.26,1.239-1.238a20.014,20.014,0,0,1,28.273-.023l.237.237a20.017,20.017,0,0,1,.008,28.259l-27.611,27.611A3.012,3.012,0,0,1,403.028,1500.847Z" transform="translate(-367.488 -1438.017)" fill="#282d33"/>
  </g>
  <g id="Path_318" data-name="Path 318" transform="translate(0 12.637)">
    <path id="Path_478" data-name="Path 478" d="M394.986,1466.956c-.052,0-.1,0-.155-.008a1.519,1.519,0,0,1-1.3-1.066l-4.192-13.671-3.884,8.839a1.517,1.517,0,0,1-1.388.907H364.447a1.517,1.517,0,1,1,0-3.033h18.635l5.126-11.67a1.518,1.518,0,0,1,2.839.167l4.334,14.135,1.009-1.843a1.513,1.513,0,0,1,1.33-.789h21.245a1.517,1.517,0,0,1,0,3.033H398.619l-2.3,4.208A1.519,1.519,0,0,1,394.986,1466.956Z" transform="translate(-362.93 -1446.35)" fill="#282d33"/>
  </g>
</svg>
