<svg xmlns="http://www.w3.org/2000/svg" width="31.028" height="27.335" viewBox="0 0 31.028 27.335">
  <g id="Group_778" data-name="Group 778" transform="translate(-579.919 -1595.103)">
    <g id="Group_773" data-name="Group 773" transform="translate(582.861 1598.209)">
      <path id="Path_636" data-name="Path 636" d="M589.6,1619.254l-5.692.432v-19.95l5.606-.426Z" transform="translate(-583.903 -1599.31)" fill="#00b5e6"/>
    </g>
    <g id="Group_774" data-name="Group 774" transform="translate(602.437 1598.951)">
      <path id="Path_637" data-name="Path 637" d="M616.1,1620.258l-5.692.433V1600.74l5.606-.426Z" transform="translate(-610.413 -1600.314)" fill="#00b5e6"/>
    </g>
    <g id="Group_775" data-name="Group 775" transform="translate(579.919 1595.103)">
      <path id="Path_638" data-name="Path 638" d="M580.657,1621.7a.737.737,0,0,1-.738-.738V1596.58a.74.74,0,0,1,.684-.737l9.85-.738a.751.751,0,0,1,.557.195.737.737,0,0,1,.236.542v24.381a.738.738,0,0,1-.683.736l-9.85.738Zm9.85-1.477h0Zm-9.112-22.958v22.9l8.373-.628v-22.9Z" transform="translate(-579.919 -1595.103)" fill="#282d33"/>
    </g>
    <g id="Group_776" data-name="Group 776" transform="translate(589.769 1595.104)">
      <path id="Path_639" data-name="Path 639" d="M603.846,1622.438a.792.792,0,0,1-.109-.008l-9.85-1.477a.739.739,0,0,1-.629-.73v-24.381a.738.738,0,0,1,.257-.56.752.752,0,0,1,.591-.171l9.85,1.477a.739.739,0,0,1,.628.731V1621.7a.738.738,0,0,1-.738.739Zm-9.112-2.851,8.373,1.255v-22.888l-8.373-1.255Z" transform="translate(-593.258 -1595.104)" fill="#282d33"/>
    </g>
    <g id="Group_777" data-name="Group 777" transform="translate(599.619 1595.841)">
      <path id="Path_640" data-name="Path 640" d="M607.335,1622.7a.738.738,0,0,1-.738-.739V1597.58a.739.739,0,0,1,.683-.737l9.851-.738a.738.738,0,0,1,.794.737v24.381a.738.738,0,0,1-.684.736l-9.85.738Zm9.851-1.477h0Zm-9.112-22.958v22.9l8.374-.628v-22.9Z" transform="translate(-606.597 -1596.102)" fill="#282d33"/>
    </g>
  </g>
</svg>
