<svg id="Group_766" data-name="Group 766" xmlns="http://www.w3.org/2000/svg" width="85.171" height="56.052" viewBox="0 0 85.171 56.052">
  <g id="Group_726" data-name="Group 726" transform="translate(6.067 30.955)">
    <rect id="Rectangle_394" data-name="Rectangle 394" width="79.105" height="10.994" fill="#00b5e6"/>
  </g>
  <g id="Group_727" data-name="Group 727" transform="translate(34.121 0)">
    <path id="Path_611" data-name="Path 611" d="M524.813,1488.268H510.356a1.517,1.517,0,0,1,0-3.033H523.3v-41.949H481.345v41.949h12.941a1.517,1.517,0,0,1,0,3.033H479.829a1.516,1.516,0,0,1-1.517-1.517v-44.982a1.516,1.516,0,0,1,1.517-1.517h44.984a1.516,1.516,0,0,1,1.517,1.517v44.982A1.516,1.516,0,0,1,524.813,1488.268Z" transform="translate(-478.312 -1440.252)" fill="#282d33"/>
  </g>
  <g id="Group_728" data-name="Group 728" transform="translate(0 10.862)">
    <path id="Path_612" data-name="Path 612" d="M491.451,1484.568h-9.024a1.517,1.517,0,1,1,0-3.033h7.507v-31.087H475.186l-9.253,13.374a1.517,1.517,0,0,1-1.247.653h-5.839v17.06h7.509a1.517,1.517,0,0,1,0,3.033h-9.025a1.516,1.516,0,0,1-1.517-1.517v-20.094a1.516,1.516,0,0,1,1.517-1.517h6.561l9.253-13.373a1.517,1.517,0,0,1,1.247-.654h17.06a1.515,1.515,0,0,1,1.517,1.517v34.121A1.515,1.515,0,0,1,491.451,1484.568Z" transform="translate(-455.814 -1447.414)" fill="#282d33"/>
  </g>
  <g id="Group_729" data-name="Group 729" transform="translate(61.52 12.846)">
    <rect id="Rectangle_395" data-name="Rectangle 395" width="6.78" height="6.78" fill="#00b5e6"/>
  </g>
  <g id="Group_730" data-name="Group 730" transform="translate(54.74 12.846)">
    <rect id="Rectangle_396" data-name="Rectangle 396" width="6.78" height="6.78" fill="#00b5e6"/>
  </g>
  <g id="Group_731" data-name="Group 731" transform="translate(47.96 12.846)">
    <rect id="Rectangle_397" data-name="Rectangle 397" width="6.78" height="6.78" fill="#00b5e6"/>
  </g>
  <g id="Group_732" data-name="Group 732" transform="translate(54.74 6.066)">
    <rect id="Rectangle_398" data-name="Rectangle 398" width="6.78" height="6.78" transform="translate(0 6.78) rotate(-90)" fill="#00b5e6"/>
  </g>
  <g id="Group_733" data-name="Group 733" transform="translate(54.74 19.626)">
    <rect id="Rectangle_399" data-name="Rectangle 399" width="6.78" height="6.78" transform="translate(0 6.78) rotate(-90)" fill="#00b5e6"/>
  </g>
  <g id="Group_734" data-name="Group 734" transform="translate(9.025 36.948)">
    <path id="Path_613" data-name="Path 613" d="M471.317,1483.719a9.552,9.552,0,1,1,9.553-9.553A9.562,9.562,0,0,1,471.317,1483.719Zm0-16.072a6.519,6.519,0,1,0,6.52,6.518A6.526,6.526,0,0,0,471.317,1467.647Z" transform="translate(-461.765 -1464.614)" fill="#282d33"/>
  </g>
  <g id="Group_735" data-name="Group 735" transform="translate(48.578 36.948)">
    <path id="Path_614" data-name="Path 614" d="M497.4,1483.719a9.552,9.552,0,1,1,9.552-9.553A9.562,9.562,0,0,1,497.4,1483.719Zm0-16.072a6.519,6.519,0,1,0,6.518,6.518A6.526,6.526,0,0,0,497.4,1467.647Z" transform="translate(-487.845 -1464.614)" fill="#282d33"/>
  </g>
  <g id="Group_736" data-name="Group 736" transform="translate(15.052 16.928)">
    <path id="Path_615" data-name="Path 615" d="M481.775,1451.414H472.3l-6.559,9.478h16.036Z" transform="translate(-465.739 -1451.414)" fill="#00b5e6"/>
  </g>
  <g id="Group_737" data-name="Group 737" transform="translate(34.121 29.439)">
    <path id="Path_616" data-name="Path 616" d="M524.813,1462.7H479.829a1.517,1.517,0,0,1,0-3.033h44.984a1.517,1.517,0,0,1,0,3.033Z" transform="translate(-478.312 -1459.663)" fill="#282d33"/>
  </g>
</svg>
