<?xml version="1.0" encoding="utf-8"?>
<!-- Generator: Adobe Illustrator 25.2.1, SVG Export Plug-In . SVG Version: 6.00 Build 0)  -->
<svg version="1.1" xmlns="http://www.w3.org/2000/svg" xmlns:xlink="http://www.w3.org/1999/xlink" x="0px" y="0px"
	 viewBox="0 0 245.5 30" style="enable-background:new 0 0 245.5 30;" xml:space="preserve">
<style type="text/css">
	.st0{fill:#ABB6AB;}
	.st1{clip-path:url(#SVGID_2_);fill:#005493;}
	.st2{clip-path:url(#SVGID_2_);}
	.st3{clip-path:url(#SVGID_4_);fill:#FFFFFF;}
	.st4{clip-path:url(#SVGID_4_);fill:#316094;}
	.st5{fill:#005493;}
</style>
<g id="Center_Guides">
</g>
<g id="Logos">
	<g>
		<g>
			<path class="st0" d="M48.4,24.7h2.1l-1-3.6h-0.1L48.4,24.7z M46.8,27.5l2.1-6.9H50l2.1,6.9h-0.8l-0.6-2.2h-2.5l-0.6,2.2H46.8z"/>
			<g>
				<path class="st0" d="M59.6,22.3c0-0.2-0.1-0.3-0.2-0.5c-0.1-0.1-0.2-0.3-0.3-0.4c-0.1-0.1-0.3-0.2-0.5-0.3
					c-0.2-0.1-0.4-0.1-0.6-0.1c-0.4,0-0.7,0.1-0.9,0.3c-0.2,0.2-0.3,0.4-0.3,0.8c0,0.2,0.1,0.4,0.2,0.5c0.1,0.1,0.3,0.3,0.4,0.4
					c0.2,0.1,0.4,0.2,0.6,0.3c0.2,0.1,0.5,0.2,0.7,0.3c0.2,0.1,0.5,0.2,0.7,0.3c0.2,0.1,0.4,0.2,0.6,0.4c0.2,0.1,0.3,0.3,0.4,0.5
					c0.1,0.2,0.2,0.4,0.2,0.7c0,0.2,0,0.5-0.1,0.7c-0.1,0.2-0.2,0.5-0.4,0.6c-0.2,0.2-0.4,0.3-0.7,0.5c-0.3,0.1-0.7,0.2-1.1,0.2
					c-0.4,0-0.7-0.1-1-0.2c-0.3-0.1-0.5-0.3-0.7-0.4c-0.2-0.2-0.3-0.4-0.5-0.6c-0.1-0.2-0.2-0.4-0.3-0.6l0.7-0.2
					c0.1,0.2,0.2,0.4,0.3,0.5c0.1,0.2,0.2,0.3,0.4,0.4c0.1,0.1,0.3,0.2,0.5,0.3c0.2,0.1,0.4,0.1,0.7,0.1c0.5,0,0.9-0.1,1.1-0.4
					c0.3-0.2,0.4-0.5,0.4-0.9c0-0.3-0.1-0.5-0.3-0.7c-0.2-0.2-0.4-0.3-0.7-0.5c-0.3-0.1-0.6-0.3-0.9-0.4c-0.3-0.1-0.6-0.2-0.9-0.4
					c-0.3-0.2-0.5-0.3-0.7-0.6c-0.2-0.2-0.3-0.5-0.3-0.9c0-0.2,0-0.5,0.1-0.7c0.1-0.2,0.2-0.4,0.4-0.6c0.2-0.2,0.4-0.3,0.7-0.4
					c0.3-0.1,0.5-0.1,0.8-0.1c0.5,0,1,0.1,1.4,0.4c0.4,0.3,0.7,0.7,0.9,1.3L59.6,22.3z"/>
			</g>
			<polygon class="st0" points="64.2,21.2 64.2,27.5 63.4,27.5 63.4,21.2 61.3,21.2 61.3,20.6 66.2,20.6 66.2,21.2 			"/>
			<polygon class="st0" points="71.6,20.6 71.6,21.2 68.2,21.2 68.2,23.5 70.6,23.5 70.6,24.2 68.2,24.2 68.2,26.8 71.8,26.8 
				71.8,27.5 67.5,27.5 67.5,20.6 			"/>
			<polygon class="st0" points="72.5,20.6 73.3,20.6 74.5,26.1 74.5,26.1 75.9,20.6 76.6,20.6 77.9,26.1 78,26.1 79.2,20.6 
				79.9,20.6 78.3,27.5 77.6,27.5 76.2,21.9 76.2,21.9 74.9,27.5 74.2,27.5 			"/>
			<path class="st0" d="M81.4,24.7h2.1l-1-3.6h-0.1L81.4,24.7z M79.7,27.5l2.1-6.9H83l2.1,6.9h-0.8l-0.6-2.2h-2.5l-0.6,2.2H79.7z"/>
			<g>
				<path class="st0" d="M87.1,23.7h1.4c0.5,0,0.9-0.1,1.2-0.3c0.3-0.2,0.4-0.5,0.4-1c0-0.2,0-0.4-0.1-0.6c-0.1-0.2-0.2-0.3-0.3-0.4
					c-0.1-0.1-0.3-0.2-0.5-0.2c-0.2,0-0.4-0.1-0.7-0.1h-1.4V23.7z M86.3,27.5v-6.9h2.2c0.8,0,1.3,0.2,1.7,0.5
					c0.4,0.3,0.6,0.8,0.6,1.3c0,0.5-0.1,0.9-0.4,1.2c-0.3,0.3-0.6,0.5-1,0.6l1.5,3.3h-0.8l-1.4-3.1h-1.6v3.1H86.3z"/>
				<path class="st0" d="M93.4,26.8h1c0.8,0,1.4-0.2,1.8-0.7c0.4-0.5,0.6-1.2,0.6-2.1c0-0.5-0.1-0.9-0.2-1.3
					c-0.1-0.4-0.3-0.6-0.5-0.9c-0.2-0.2-0.5-0.4-0.7-0.5c-0.3-0.1-0.6-0.2-1-0.2h-1.1V26.8z M92.7,20.6h1.9c0.5,0,0.9,0.1,1.3,0.2
					c0.4,0.1,0.7,0.4,1,0.7c0.3,0.3,0.5,0.6,0.6,1.1c0.1,0.4,0.2,0.9,0.2,1.5c0,0.5-0.1,1-0.2,1.4c-0.1,0.4-0.3,0.8-0.6,1.1
					c-0.3,0.3-0.6,0.5-1,0.7c-0.4,0.2-0.8,0.3-1.4,0.3h-1.8V20.6z"/>
			</g>
			<polygon class="st0" points="106,20.6 106,21.2 102.7,21.2 102.7,23.5 105.2,23.5 105.2,24.2 102.7,24.2 102.7,27.5 101.9,27.5 
				101.9,20.6 			"/>
			<path class="st0" d="M107.6,24.7h2.1l-1-3.6h-0.1L107.6,24.7z M106,27.5l2.1-6.9h1.1l2.1,6.9h-0.8l-0.6-2.2h-2.5l-0.6,2.2H106z"
				/>
			<polygon class="st0" points="117.8,27.5 117.8,21.2 117.8,21.2 115.9,27.5 115.3,27.5 113.3,21.2 113.3,21.2 113.3,27.5 
				112.6,27.5 112.6,20.6 113.8,20.6 115.6,26.1 115.6,26.1 117.3,20.6 118.5,20.6 118.5,27.5 			"/>
			<rect x="120.7" y="20.6" class="st0" width="0.8" height="6.9"/>
			<polygon class="st0" points="123.8,27.5 123.8,20.6 124.5,20.6 124.5,26.8 127.8,26.8 127.8,27.5 			"/>
			<polygon class="st0" points="129.4,24.6 127.3,20.6 128.1,20.6 129.8,23.7 131.5,20.6 132.3,20.6 130.2,24.6 130.2,27.5 
				129.4,27.5 			"/>
			<polygon class="st0" points="141.2,20.6 141.2,27.5 140.5,27.5 140.5,24.2 137.2,24.2 137.2,27.5 136.4,27.5 136.4,20.6 
				137.2,20.6 137.2,23.5 140.5,23.5 140.5,20.6 			"/>
			<g>
				<path class="st0" d="M143.5,24c0,1,0.2,1.7,0.5,2.2c0.3,0.5,0.8,0.7,1.4,0.7c0.6,0,1.1-0.2,1.4-0.7c0.3-0.5,0.5-1.2,0.5-2.2
					c0-1-0.2-1.7-0.5-2.2c-0.3-0.5-0.8-0.7-1.4-0.7c-0.6,0-1.1,0.2-1.4,0.7C143.7,22.3,143.5,23,143.5,24 M142.8,24
					c0-1.2,0.2-2,0.7-2.6c0.5-0.6,1.1-0.9,2-0.9c0.9,0,1.5,0.3,2,0.9c0.5,0.6,0.7,1.5,0.7,2.6c0,1.2-0.2,2-0.7,2.6
					c-0.5,0.6-1.1,0.9-2,0.9c-0.9,0-1.5-0.3-2-0.9C143,26.1,142.8,25.2,142.8,24"/>
				<path class="st0" d="M152.9,22.3c0-0.2-0.1-0.3-0.2-0.5c-0.1-0.1-0.2-0.3-0.3-0.4c-0.1-0.1-0.3-0.2-0.5-0.3
					c-0.2-0.1-0.4-0.1-0.6-0.1c-0.4,0-0.7,0.1-0.9,0.3c-0.2,0.2-0.3,0.4-0.3,0.8c0,0.2,0.1,0.4,0.2,0.5c0.1,0.1,0.3,0.3,0.4,0.4
					c0.2,0.1,0.4,0.2,0.6,0.3c0.2,0.1,0.5,0.2,0.7,0.3c0.2,0.1,0.5,0.2,0.7,0.3c0.2,0.1,0.4,0.2,0.6,0.4c0.2,0.1,0.3,0.3,0.4,0.5
					c0.1,0.2,0.2,0.4,0.2,0.7c0,0.2,0,0.5-0.1,0.7c-0.1,0.2-0.2,0.5-0.4,0.6c-0.2,0.2-0.4,0.3-0.7,0.5c-0.3,0.1-0.7,0.2-1.1,0.2
					c-0.4,0-0.7-0.1-1-0.2c-0.3-0.1-0.5-0.3-0.7-0.4c-0.2-0.2-0.4-0.4-0.5-0.6c-0.1-0.2-0.2-0.4-0.3-0.6l0.7-0.2
					c0.1,0.2,0.2,0.4,0.3,0.5c0.1,0.2,0.2,0.3,0.4,0.4c0.1,0.1,0.3,0.2,0.5,0.3c0.2,0.1,0.4,0.1,0.7,0.1c0.5,0,0.9-0.1,1.1-0.4
					c0.3-0.2,0.4-0.5,0.4-0.9c0-0.3-0.1-0.5-0.3-0.7c-0.2-0.2-0.4-0.3-0.7-0.5c-0.3-0.1-0.6-0.3-0.9-0.4c-0.3-0.1-0.6-0.2-0.9-0.4
					c-0.3-0.2-0.5-0.3-0.7-0.6c-0.2-0.2-0.3-0.5-0.3-0.9c0-0.2,0-0.5,0.1-0.7c0.1-0.2,0.2-0.4,0.4-0.6c0.2-0.2,0.4-0.3,0.7-0.4
					c0.3-0.1,0.5-0.1,0.8-0.1c0.5,0,1,0.1,1.4,0.4c0.4,0.3,0.7,0.7,0.9,1.3L152.9,22.3z"/>
				<path class="st0" d="M156.2,23.7h1.3c0.3,0,0.6,0,0.8-0.1c0.2-0.1,0.4-0.1,0.5-0.2c0.1-0.1,0.2-0.2,0.3-0.4
					c0.1-0.2,0.1-0.3,0.1-0.5c0-0.4-0.1-0.7-0.4-0.9c-0.2-0.2-0.6-0.3-1.1-0.3h-1.5V23.7z M155.4,27.5v-6.9h2.4c0.4,0,0.7,0,1,0.1
					c0.3,0.1,0.5,0.2,0.7,0.4c0.2,0.2,0.3,0.4,0.4,0.6c0.1,0.2,0.1,0.5,0.1,0.8c0,0.6-0.2,1-0.6,1.4c-0.4,0.3-1,0.5-1.9,0.5h-1.2
					v3.1H155.4z"/>
			</g>
			<rect x="161.5" y="20.6" class="st0" width="0.8" height="6.9"/>
			<polygon class="st0" points="166.5,21.2 166.5,27.5 165.7,27.5 165.7,21.2 163.7,21.2 163.7,20.6 168.6,20.6 168.6,21.2 			"/>
			<path class="st0" d="M169.9,24.7h2.1l-1-3.6h-0.1L169.9,24.7z M168.3,27.5l2.1-6.9h1.1l2.1,6.9h-0.8l-0.6-2.2h-2.5l-0.6,2.2
				H168.3z"/>
			<polygon class="st0" points="174.9,27.5 174.9,20.6 175.7,20.6 175.7,26.8 179,26.8 179,27.5 			"/>
		</g>
		<g>
			<g>
				<defs>
					<rect id="SVGID_1_" x="2.9" y="2.5" width="39.1" height="25"/>
				</defs>
				<clipPath id="SVGID_2_">
					<use xlink:href="#SVGID_1_"  style="overflow:visible;"/>
				</clipPath>
				<polygon class="st1" points="40.3,2.5 15.3,2.5 15.3,15 2.9,15 2.9,27.5 27.9,27.5 27.9,15 40.3,15 				"/>
				<g class="st2">
					<defs>
						<rect id="SVGID_3_" x="-372.9" y="-291.3" width="792.2" height="612.2"/>
					</defs>
					<clipPath id="SVGID_4_">
						<use xlink:href="#SVGID_3_"  style="overflow:visible;"/>
					</clipPath>
					<path class="st3" d="M4.1,24.3h0.2c0.1,0.7,0.5,1.2,1.3,1.2c0.5,0,1-0.3,1-0.8c0-0.6-0.5-0.8-1-1c-0.6-0.2-1.3-0.6-1.3-1.3
						c0-0.8,0.6-1.2,1.3-1.2c0.4,0,0.7,0.1,1,0.3l0.2-0.3h0.1l0,1.2H6.6c-0.2-0.6-0.5-1.1-1.1-1.1c-0.4,0-0.8,0.3-0.8,0.7
						c0,0.5,0.5,0.7,0.9,0.9c0.7,0.3,1.5,0.6,1.5,1.5c0,0.9-0.8,1.3-1.6,1.3c-0.5,0-0.8-0.1-1.2-0.4l-0.2,0.3H4.1V24.3z"/>
					<path class="st3" d="M7.6,23v-0.1c0.3-0.2,0.7-0.5,0.8-0.8h0.1v0.8h0.8V23H8.5v1.9c0,0.3,0.1,0.6,0.4,0.6
						c0.2,0,0.4-0.1,0.5-0.3l0.1,0.1c-0.1,0.3-0.5,0.4-0.8,0.4c-0.5,0-0.8-0.2-0.8-0.7v-2H7.6z"/>
					<path class="st3" d="M12.4,25.2c-0.3,0.4-0.7,0.6-1.2,0.6c-0.8,0-1.5-0.6-1.5-1.4c0-0.8,0.6-1.6,1.5-1.6c0.7,0,1.3,0.4,1.3,1.1
						c0,0.1-0.1,0.1-0.2,0.1h-1.9l0,0.3c0,0.6,0.3,1.3,1,1.3c0.3,0,0.6-0.2,0.8-0.5L12.4,25.2z M11.5,23.7c0.1,0,0.3,0,0.3-0.1
						c0-0.4-0.2-0.7-0.6-0.7c-0.5,0-0.7,0.4-0.8,0.8H11.5z"/>
					<path class="st3" d="M14.9,23.7l-0.8,2.1h-0.2l-0.7-2.2c0-0.1-0.1-0.4-0.2-0.5c-0.1-0.1-0.2-0.2-0.4-0.2v-0.1
						c0.2,0,0.5,0,0.7,0c0.2,0,0.5,0,0.7,0v0.1c-0.2,0-0.4,0.1-0.4,0.3c0,0.1,0.1,0.4,0.1,0.6l0.4,1.2h0l0.8-2.2h0.1l0.9,2.2h0
						l0.4-1.4c0-0.1,0.1-0.3,0.1-0.4c0-0.2-0.2-0.3-0.4-0.3v-0.1c0.2,0,0.4,0,0.5,0c0.2,0,0.4,0,0.5,0v0.1c-0.1,0-0.2,0.1-0.3,0.1
						c-0.1,0.1-0.2,0.4-0.3,0.6l-0.7,2.2h-0.2L14.9,23.7z"/>
					<path class="st3" d="M19,23.9c0.1,0,0.1-0.1,0.1-0.2c0-0.5,0-0.8-0.6-0.8c-0.3,0-0.6,0-0.6,0.4c0,0.1-0.1,0.3-0.3,0.3
						c-0.1,0-0.3-0.1-0.3-0.2c0-0.5,0.9-0.6,1.2-0.6c0.7,0,1.1,0.2,1.1,1v1.1c0,0.2,0,0.7,0.2,0.7c0.1,0,0.2-0.1,0.3-0.2l0.1,0.1
						c-0.1,0.2-0.4,0.4-0.6,0.4c-0.3,0-0.5-0.2-0.6-0.5c-0.3,0.3-0.7,0.5-1.1,0.5c-0.4,0-0.7-0.2-0.7-0.6c0-0.6,0.6-0.8,1.1-1
						L19,23.9z M19,24c-0.4,0.2-1.2,0.5-1.2,1c0,0.2,0.2,0.5,0.4,0.5c0.3,0,0.5-0.2,0.7-0.4V24z"/>
					<path class="st3" d="M20.9,24.1c0-0.2,0-0.7,0-0.8c-0.1-0.2-0.2-0.2-0.4-0.2V23c0.3,0,0.6-0.1,0.9-0.2c0.1,0.2,0.1,0.4,0.1,0.7
						h0c0.2-0.4,0.5-0.7,1-0.7c0.2,0,0.5,0.1,0.5,0.3c0,0.1-0.1,0.2-0.2,0.2c-0.3,0-0.2-0.3-0.5-0.3c-0.2,0-0.4,0.2-0.5,0.3
						c-0.2,0.3-0.2,0.6-0.2,0.9v0.7c0,0.5-0.1,0.6,0.5,0.7v0.1c-0.3,0-0.5,0-0.8,0c-0.3,0-0.5,0-0.8,0v-0.1c0.5,0,0.5-0.2,0.5-0.6
						V24.1z"/>
					<path class="st3" d="M25.7,25.8c-0.1-0.2-0.1-0.3-0.1-0.5c-0.3,0.3-0.6,0.5-1,0.5c-0.8,0-1.4-0.6-1.4-1.5
						c0-0.8,0.6-1.5,1.4-1.5c0.4,0,0.7,0.1,1,0.4v-1.1c0-0.4,0-0.6-0.5-0.6v-0.1l1.1-0.2v3.4c0,0.2,0,0.5,0.1,0.7
						c0.1,0.2,0.3,0.2,0.5,0.2v0.1L25.7,25.8z M25.5,23.6c0-0.4-0.4-0.7-0.8-0.7c-0.7,0-0.9,0.8-0.9,1.3c0,0.6,0.2,1.3,0.9,1.3
						c0.6,0,0.8-0.5,0.8-1V23.6z"/>
					<path class="st4" d="M41.9,3.2c0,0.4-0.3,0.7-0.7,0.7c-0.4,0-0.7-0.3-0.7-0.7s0.3-0.7,0.7-0.7C41.6,2.6,41.9,2.9,41.9,3.2
						 M41.8,3.2c0-0.3-0.2-0.6-0.6-0.6s-0.6,0.3-0.6,0.6c0,0.3,0.2,0.6,0.6,0.6S41.8,3.6,41.8,3.2 M41.1,3.6H41V2.8h0.3
						c0.2,0,0.3,0.1,0.3,0.2c0,0.1-0.1,0.2-0.2,0.2l0.2,0.4h-0.1l-0.2-0.4h-0.2V3.6z M41.2,3.2c0.1,0,0.2,0,0.2-0.1
						c0-0.1-0.1-0.1-0.2-0.1h-0.2v0.3H41.2z"/>
				</g>
			</g>
		</g>
	</g>
	<path class="st5" d="M54.1,5.9l-2.1,0.6c-0.4-1.1-1-1.7-1.7-1.7c-0.9,0-1.3,0.5-1.3,1.4c0,0.5,0.5,1,1.4,1.5
		c1.4,0.8,2.3,1.3,2.6,1.6c0.9,0.8,1.4,1.7,1.4,2.8c0,1.1-0.4,1.9-1.1,2.6c-0.7,0.6-1.7,1-2.9,1c-2.1,0-3.5-1.2-4.1-3.5l2.3-0.5
		c0.1,0.7,0.4,1.2,0.8,1.6c0.3,0.3,0.7,0.4,1.1,0.4c0.4,0,0.8-0.1,1.1-0.4c0.3-0.3,0.4-0.6,0.4-1.1c0-0.6-0.5-1.2-1.4-1.8
		c-0.9-0.5-1.7-1-2.6-1.5c-0.9-0.7-1.4-1.6-1.4-2.6c0-1.1,0.3-1.9,1-2.6c0.6-0.6,1.6-0.9,2.8-0.9c1,0,1.9,0.3,2.6,0.8
		C53.4,4.2,53.8,5,54.1,5.9"/>
	<path class="st5" d="M55.3,8.3h-0.9V6.5h0.9V4h2.2v2.5h1.4v1.8h-1.4v4.8c0,0.5,0.3,0.7,1,0.7h0.4v1.8c-0.3,0.1-0.8,0.1-1.2,0.1
		c-1.6,0-2.3-0.6-2.3-1.9V8.3z"/>
	<rect x="60" y="13.6" class="st5" width="2.2" height="2.2"/>
	<polygon class="st5" points="72.4,15.5 65.7,15.5 65.7,3 72.2,3 72.2,5.1 68.1,5.1 68.1,8 71.2,8 71.2,10.1 68.1,10.1 68.1,13.4 
		72.4,13.4 	"/>
	<rect x="73.7" y="3" class="st5" width="2.2" height="12.5"/>
	<path class="st5" d="M79.6,4.5h-2.2v-2h2.2V4.5z M77.4,6.1h2.2v9.4h-2.2V6.1z"/>
	<polygon class="st5" points="81.4,8 81.4,6.1 87.6,6.1 87.6,8 83.6,13.6 87.6,13.6 87.6,15.5 81,15.5 81,13.6 84.9,8 	"/>
	<path class="st5" d="M90.9,8.8h-2.2c0.1-1,0.5-1.7,1.2-2.2c0.6-0.4,1.4-0.7,2.3-0.7c2.1,0,3.2,0.9,3.2,2.8v5.9c0,0.2,0,0.5,0.1,0.8
		h-2.2c0-0.2-0.1-0.5-0.2-0.9c-0.7,0.7-1.6,1.1-2.6,1.1c-1.4,0-2.2-0.7-2.2-2.2c0-1,0.5-1.8,1.4-2.5c0.7-0.5,1.8-1,3.4-1.4V8.8
		c0-0.7-0.4-1.1-1.1-1.1c-0.3,0-0.6,0.1-0.8,0.3C91,8.2,90.9,8.5,90.9,8.8 M93.2,13.2v-2.3c-1.7,0.6-2.6,1.3-2.6,2.2
		c0,0.7,0.3,1,1,1C92.1,14,92.7,13.8,93.2,13.2"/>
	<path class="st5" d="M99,15.5h-2V3h2.2V7c0.9-0.7,1.7-1,2.2-1c1.6,0,2.4,1.2,2.4,3.7v2.3c0,2.5-0.8,3.7-2.4,3.7
		c-0.4,0-0.9-0.1-1.4-0.4c-0.4-0.3-0.7-0.5-0.9-0.9h0V15.5z M99.2,8.2v5.2c0.4,0.4,0.8,0.7,1.3,0.7c0.7,0,1.1-0.8,1.1-2.2v-2
		c0-1.5-0.4-2.2-1.1-2.2C100,7.5,99.6,7.8,99.2,8.2"/>
	<path class="st5" d="M111.9,11.3h-4.7v1.2c0,0.9,0.4,1.3,1.3,1.3c0.8,0,1.3-0.4,1.3-1.3h2.2c-0.1,2-1.3,3.1-3.5,3.1
		c-1,0-1.9-0.3-2.5-0.9c-0.6-0.6-0.9-1.4-0.9-2.4V9.3c0-1,0.3-1.8,0.9-2.4c0.6-0.6,1.5-0.9,2.5-0.9c1,0,1.8,0.3,2.5,0.9
		c0.6,0.6,1,1.4,1,2.3V11.3z M107.2,9.6h2.5l0-0.5c0-0.9-0.4-1.4-1.3-1.4c-0.8,0-1.3,0.5-1.3,1.4V9.6z"/>
	<path class="st5" d="M113.3,8.3h-0.9V6.5h0.9V4h2.2v2.5h1.4v1.8h-1.4v4.8c0,0.5,0.3,0.7,1,0.7h0.4v1.8c-0.3,0.1-0.8,0.1-1.2,0.1
		c-1.6,0-2.3-0.6-2.3-1.9V8.3z"/>
	<path class="st5" d="M119.9,15.5h-2.2V3h2.2v4.1c0.9-0.8,1.7-1.2,2.4-1.2c1.3,0,2,0.8,2,2.4v7.1h-2.2V8.6c0-0.7-0.3-1-0.8-1
		c-0.3,0-0.8,0.3-1.4,0.8V15.5z"/>
	<polygon class="st5" points="125.5,7.8 126.3,5.5 125.4,5.5 125.4,3.3 127.6,3.3 127.6,5.5 126.6,7.8 	"/>
	<path class="st5" d="M134.7,8.3L132.9,9c-0.3-0.9-0.8-1.3-1.5-1.3c-0.3,0-0.5,0.1-0.6,0.2c-0.2,0.2-0.2,0.4-0.2,0.6
		c0,0.4,0.4,0.8,1.1,1.1c1.2,0.6,1.8,1,2,1.1c0.7,0.6,1.1,1.2,1.1,2c0,0.9-0.3,1.6-0.9,2.1c-0.6,0.5-1.3,0.7-2.3,0.7
		c-0.8,0-1.4-0.2-1.9-0.5c-0.6-0.4-1.2-1.1-1.7-2.2l1.9-0.5c0.2,1,0.7,1.5,1.6,1.5c0.7,0,1-0.3,1-0.8c0-0.5-0.4-0.9-1.1-1.3
		c-1.2-0.6-1.9-1-2-1.1c-0.7-0.6-1.1-1.3-1.1-2.2c0-0.8,0.3-1.5,0.9-2c0.5-0.4,1.2-0.6,2.1-0.6C133,5.9,134.1,6.7,134.7,8.3"/>
	<polygon class="st5" points="142.6,15.5 140.6,15.5 140.6,3 143.9,3 146.1,11.2 146.1,11.2 148.3,3 151.6,3 151.6,15.5 149.6,15.5 
		149.6,5.7 147,15.5 145.2,15.5 142.6,5.7 	"/>
	<path class="st5" d="M160.1,11.3h-4.7v1.2c0,0.9,0.4,1.3,1.3,1.3c0.8,0,1.3-0.4,1.3-1.3h2.2c-0.1,2-1.3,3.1-3.5,3.1
		c-1,0-1.9-0.3-2.5-0.9c-0.6-0.6-0.9-1.4-0.9-2.4V9.3c0-1,0.3-1.8,0.9-2.4c0.6-0.6,1.5-0.9,2.5-0.9c1,0,1.8,0.3,2.5,0.9
		c0.6,0.6,1,1.4,1,2.3V11.3z M155.4,9.6h2.5l0-0.5c0-0.9-0.4-1.4-1.3-1.4c-0.8,0-1.3,0.5-1.3,1.4V9.6z"/>
	<path class="st5" d="M168.2,15.5h-2v-1.1h0c-0.2,0.3-0.5,0.6-0.9,0.9c-0.5,0.3-0.9,0.4-1.4,0.4c-1.6,0-2.4-1.2-2.4-3.7V9.7
		c0-2.5,0.8-3.7,2.4-3.7c0.5,0,1.2,0.3,2.2,1V3h2.2V15.5z M166,13.4V8.2c-0.4-0.4-0.8-0.7-1.3-0.7c-0.7,0-1.1,0.7-1.1,2.2v2
		c0,1.5,0.4,2.2,1.1,2.2C165.2,14,165.6,13.8,166,13.4"/>
	<path class="st5" d="M172.2,4.5H170v-2h2.2V4.5z M170,6.1h2.2v9.4H170V6.1z"/>
	<path class="st5" d="M180.9,9.3h-2.2V8.9c0-0.7-0.4-1.1-1.3-1.1c-0.8,0-1.3,0.4-1.3,1.1v3.7c0,0.7,0.4,1.1,1.3,1.1
		c0.8,0,1.3-0.4,1.3-1.1v-0.6h2.2v0c0,2.4-1.2,3.6-3.5,3.6c-2.3,0-3.5-1.2-3.5-3.6V9.5c0-2.4,1.2-3.6,3.5-3.6
		C179.7,5.9,180.9,7.1,180.9,9.3"/>
	<path class="st5" d="M184.4,8.8h-2.2c0.1-1,0.5-1.7,1.2-2.2c0.6-0.4,1.4-0.7,2.3-0.7c2.1,0,3.2,0.9,3.2,2.8v5.9
		c0,0.2,0,0.5,0.1,0.8h-2.2c0-0.2-0.1-0.5-0.2-0.9c-0.7,0.7-1.6,1.1-2.6,1.1c-1.4,0-2.2-0.7-2.2-2.2c0-1,0.5-1.8,1.4-2.5
		c0.7-0.5,1.8-1,3.4-1.4V8.8c0-0.7-0.4-1.1-1.1-1.1c-0.3,0-0.6,0.1-0.8,0.3C184.5,8.2,184.4,8.5,184.4,8.8 M186.7,13.2v-2.3
		c-1.7,0.6-2.6,1.3-2.6,2.2c0,0.7,0.3,1,1,1C185.5,14,186.1,13.8,186.7,13.2"/>
	<rect x="190.4" y="3" class="st5" width="2.2" height="12.5"/>
	<path class="st5" d="M200.6,6.7v5.1c0,1.2,0.5,1.8,1.6,1.8c1,0,1.6-0.6,1.6-1.8V11h2.4v0.5c0,2.8-1.3,4.2-3.9,4.2
		c-2.6,0-3.9-1.4-3.9-4.2V7c0-2.8,1.3-4.2,3.9-4.2c2.6,0,3.9,1.4,3.9,4.2v0h-2.4V6.7c0-1.2-0.5-1.8-1.6-1.8
		C201.1,4.9,200.6,5.5,200.6,6.7"/>
	<path class="st5" d="M213.8,11.3h-4.7v1.2c0,0.9,0.4,1.3,1.3,1.3c0.8,0,1.3-0.4,1.3-1.3h2.2c-0.1,2-1.3,3.1-3.5,3.1
		c-1,0-1.9-0.3-2.5-0.9c-0.6-0.6-0.9-1.4-0.9-2.4V9.3c0-1,0.3-1.8,0.9-2.4c0.6-0.6,1.5-0.9,2.5-0.9c1,0,1.8,0.3,2.5,0.9
		c0.6,0.6,1,1.4,1,2.3V11.3z M209.1,9.6h2.5l0-0.5c0-0.9-0.4-1.4-1.3-1.4c-0.8,0-1.3,0.5-1.3,1.4V9.6z"/>
	<path class="st5" d="M217.5,15.5h-2.2V6.1h2.1v1.1c1-0.8,1.8-1.2,2.4-1.2c1.3,0,2,0.8,2,2.4v7.1h-2.2V8.6c0-0.7-0.3-1-0.8-1
		c-0.3,0-0.8,0.3-1.4,0.8V15.5z"/>
	<path class="st5" d="M223.4,8.3h-0.9V6.5h0.9V4h2.2v2.5h1.4v1.8h-1.4v4.8c0,0.5,0.3,0.7,1,0.7h0.4v1.8c-0.3,0.1-0.8,0.1-1.2,0.1
		c-1.6,0-2.3-0.6-2.3-1.9V8.3z"/>
	<path class="st5" d="M234.6,11.3h-4.7v1.2c0,0.9,0.4,1.3,1.3,1.3c0.8,0,1.3-0.4,1.3-1.3h2.2c-0.1,2-1.3,3.1-3.5,3.1
		c-1,0-1.9-0.3-2.5-0.9c-0.6-0.6-0.9-1.4-0.9-2.4V9.3c0-1,0.3-1.8,0.9-2.4c0.6-0.6,1.5-0.9,2.5-0.9c1,0,1.8,0.3,2.5,0.9
		c0.6,0.6,1,1.4,1,2.3V11.3z M229.8,9.6h2.5l0-0.5c0-0.9-0.4-1.4-1.3-1.4c-0.8,0-1.3,0.5-1.3,1.4V9.6z"/>
	<path class="st5" d="M238.2,15.5H236V6.1h2.1v1.2h0.1c0.5-0.9,1.2-1.4,2.2-1.4v2.3c-0.6-0.2-0.9-0.2-1.1-0.2
		c-0.3,0-0.6,0.1-0.8,0.3c-0.2,0.2-0.3,0.4-0.3,0.7V15.5z"/>
</g>
<g id="Guides">
</g>
</svg>
