<svg xmlns="http://www.w3.org/2000/svg" width="12.902" height="10.534" viewBox="0 0 12.902 10.534">
  <path id="Path_1" data-name="Path 1" d="M.01,9.385a5.373,5.373,0,0,0,3.871-1.1A2.673,2.673,0,0,1,1.428,6.446a3.121,3.121,0,0,0,1.148-.06A2.683,2.683,0,0,1,.483,3.765a2.966,2.966,0,0,0,1.158.3A2.727,2.727,0,0,1,.843.509,7.613,7.613,0,0,0,6.335,3.3c-.017-.17-.039-.323-.048-.477A2.553,2.553,0,0,1,7.128.748,2.6,2.6,0,0,1,9.489.093,2.443,2.443,0,0,1,10.8.8a.171.171,0,0,0,.182.052A5.435,5.435,0,0,0,12.464.286c.023-.012.048-.023.1-.044a2.663,2.663,0,0,1-1.1,1.419c0,.008.006.019.008.027.16-.029.319-.054.475-.089s.321-.081.479-.131.311-.11.483-.149c-.118.151-.232.307-.356.456a5.463,5.463,0,0,1-.885.837.211.211,0,0,0-.06.149,7.409,7.409,0,0,1-.189,1.9A7.939,7.939,0,0,1,9.99,7.692,7.186,7.186,0,0,1,7.615,9.716a7.251,7.251,0,0,1-2.391.769,8.031,8.031,0,0,1-2.24.012A7.216,7.216,0,0,1,.69,9.789C.462,9.671.232,9.538,0,9.412,0,9.4.006,9.4.01,9.385Z" transform="translate(0 -0.035)" fill="#3c96d5"/>
</svg>
