<svg xmlns="http://www.w3.org/2000/svg" width="35.061" height="35.061" viewBox="0 0 35.061 35.061">
  <g id="Path_315" data-name="Path 315" transform="translate(35.061 35.061) rotate(180)" fill="none">
    <path d="M17.53,0a17.53,17.53,0,0,1,17.53,17.53A17.728,17.728,0,0,1,30.6,29.215a16.98,16.98,0,0,1-6.32,4.518,17.258,17.258,0,0,1-6.748,1.328A17.53,17.53,0,0,1,5.135,5.135,17.25,17.25,0,0,1,17.53,0Z" stroke="none"/>
    <path d="M 17.53030395507813 1.000003814697266 C 15.24671363830566 1.000003814697266 13.03162384033203 1.451545715332031 10.94655418395996 2.342075347900391 C 8.994684219360352 3.175714492797852 7.235223770141602 4.379903793334961 5.856943130493164 5.825944900512695 C 2.67950439453125 9.145843505859375 1.000003814697266 13.19314384460449 1.000003814697266 17.53030395507813 C 1.000003814697266 21.94570350646973 2.719455718994141 26.09683418273926 5.84161376953125 29.218994140625 C 8.963773727416992 32.34115219116211 13.11490440368652 34.06060409545898 17.53030395507813 34.06060409545898 C 19.77666473388672 34.06060409545898 22.08892440795898 33.60780334472656 23.87822341918945 32.81653594970703 C 26.38862419128418 31.71952438354492 28.33773422241211 30.32955360412598 29.83841323852539 28.56551361083984 C 31.21466445922852 26.95504379272461 32.27135467529297 25.20792388916016 32.9791259765625 23.37268447875977 C 33.69674301147461 21.51191329956055 34.06060409545898 19.5462532043457 34.06060409545898 17.53030395507813 C 34.06060409545898 13.11490440368652 32.34115219116211 8.963773727416992 29.218994140625 5.84161376953125 C 26.09683418273926 2.719455718994141 21.94570350646973 1.000003814697266 17.53030395507813 1.000003814697266 M 17.53030395507813 3.814697265625e-06 C 27.2120246887207 3.814697265625e-06 35.06060409545898 7.848583221435547 35.06060409545898 17.53030395507813 C 35.06060409545898 21.86769485473633 33.48537445068359 25.8371639251709 30.5986328125 29.21517372131348 C 29.06488418579102 31.01810455322266 27.02771377563477 32.53155517578125 24.27865409851074 33.73286437988281 C 22.51189422607422 34.51417541503906 20.08491516113281 35.06060409545898 17.53030395507813 35.06060409545898 C 7.848583221435547 35.06060409545898 3.814697265625e-06 27.2120246887207 3.814697265625e-06 17.53030395507813 C 3.814697265625e-06 12.83469390869141 1.846164703369141 8.570283889770508 5.134504318237305 5.134504318237305 C 8.044284820556641 2.0816650390625 12.54419326782227 3.814697265625e-06 17.53030395507813 3.814697265625e-06 Z" stroke="none" fill="#fff"/>
  </g>
</svg>
