<svg id="Group_764" data-name="Group 764" xmlns="http://www.w3.org/2000/svg" width="56.606" height="83.224" viewBox="0 0 56.606 83.224">
  <g id="Group_692" data-name="Group 692" transform="translate(0 16.517)">
    <ellipse id="Ellipse_121" data-name="Ellipse 121" cx="26.793" cy="26.793" rx="26.793" ry="26.793" fill="#00b5e6"/>
  </g>
  <g id="Group_693" data-name="Group 693" transform="translate(25.277 45.961)">
    <path id="Path_581" data-name="Path 581" d="M761.618,1469.9a19.435,19.435,0,0,1-13.784-5.708,1.516,1.516,0,0,1,2.145-2.145,16.406,16.406,0,0,0,11.64,4.82,1.517,1.517,0,0,1,0,3.033Z" transform="translate(-747.39 -1461.599)" fill="#282d33"/>
  </g>
  <g id="Group_694" data-name="Group 694" transform="translate(13.549)">
    <path id="Path_582" data-name="Path 582" d="M741.174,1437.873a1.517,1.517,0,0,1-1.074-2.589,17.775,17.775,0,0,1,5.792-3.875,1.517,1.517,0,1,1,1.162,2.8,14.739,14.739,0,0,0-4.808,3.217A1.513,1.513,0,0,1,741.174,1437.873Z" transform="translate(-739.657 -1431.293)" fill="#282d33"/>
  </g>
  <g id="Group_695" data-name="Group 695" transform="translate(8.763 8.844)">
    <path id="Path_583" data-name="Path 583" d="M738.018,1446.413a1.516,1.516,0,0,1-1.517-1.517,17.77,17.77,0,0,1,1.356-6.835,1.517,1.517,0,0,1,2.8,1.162,14.742,14.742,0,0,0-1.125,5.674A1.515,1.515,0,0,1,738.018,1446.413Z" transform="translate(-736.501 -1437.125)" fill="#282d33"/>
  </g>
  <g id="Group_696" data-name="Group 696" transform="translate(40.2 8.844)">
    <path id="Path_584" data-name="Path 584" d="M759.986,1446.413a1.516,1.516,0,0,1-1.517-1.517,14.754,14.754,0,0,0-1.124-5.674,1.516,1.516,0,1,1,2.8-1.162,17.753,17.753,0,0,1,1.356,6.835A1.516,1.516,0,0,1,759.986,1446.413Z" transform="translate(-757.229 -1437.125)" fill="#282d33"/>
  </g>
  <g id="Group_697" data-name="Group 697" transform="translate(31.356)">
    <path id="Path_585" data-name="Path 585" d="M758.214,1437.873a1.514,1.514,0,0,1-1.074-.444,14.731,14.731,0,0,0-4.806-3.217,1.517,1.517,0,0,1,1.162-2.8,17.752,17.752,0,0,1,5.79,3.875,1.517,1.517,0,0,1-1.072,2.589Z" transform="translate(-751.398 -1431.293)" fill="#282d33"/>
  </g>
  <g id="Group_698" data-name="Group 698" transform="translate(8.763 22.682)">
    <path id="Path_586" data-name="Path 586" d="M754.356,1465.619a17.84,17.84,0,0,1-17.855-17.854,1.517,1.517,0,0,1,3.033,0,14.84,14.84,0,0,0,9.15,13.7,14.838,14.838,0,0,0,19.37-8.024,14.742,14.742,0,0,0,1.124-5.672,1.517,1.517,0,0,1,3.033,0,17.837,17.837,0,0,1-17.855,17.854Z" transform="translate(-736.501 -1446.249)" fill="#282d33"/>
  </g>
  <g id="Group_699" data-name="Group 699" transform="translate(41.44 15.099)">
    <path id="Path_587" data-name="Path 587" d="M759.564,1451.865a1.516,1.516,0,0,1-1.517-1.517v-7.583a1.517,1.517,0,0,1,3.033,0v7.583A1.516,1.516,0,0,1,759.564,1451.865Z" transform="translate(-758.047 -1441.249)" fill="#282d33"/>
  </g>
  <g id="Group_700" data-name="Group 700" transform="translate(8.763 15.099)">
    <path id="Path_588" data-name="Path 588" d="M738.018,1451.865a1.516,1.516,0,0,1-1.517-1.517v-7.583a1.517,1.517,0,0,1,3.033,0v7.583A1.515,1.515,0,0,1,738.018,1451.865Z" transform="translate(-736.501 -1441.249)" fill="#282d33"/>
  </g>
  <g id="Group_701" data-name="Group 701" transform="translate(13.549 34.235)">
    <path id="Path_589" data-name="Path 589" d="M752.726,1468.451a1.511,1.511,0,0,1-1.072-.445L740.1,1456.455a1.516,1.516,0,0,1,2.144-2.145l11.552,11.552a1.517,1.517,0,0,1-1.072,2.589Z" transform="translate(-739.657 -1453.866)" fill="#282d33"/>
  </g>
  <g id="Group_702" data-name="Group 702" transform="translate(25.102 34.235)">
    <path id="Path_590" data-name="Path 590" d="M748.79,1468.451a1.517,1.517,0,0,1-1.072-2.589l11.553-11.552a1.516,1.516,0,0,1,2.145,2.145l-11.553,11.552A1.506,1.506,0,0,1,748.79,1468.451Z" transform="translate(-747.274 -1453.866)" fill="#282d33"/>
  </g>
  <g id="Group_703" data-name="Group 703" transform="translate(19.299 68.586)">
    <path id="Path_591" data-name="Path 591" d="M750.767,1491.155a7.319,7.319,0,1,1,7.321-7.319A7.327,7.327,0,0,1,750.767,1491.155Zm0-11.6a4.286,4.286,0,1,0,4.287,4.286A4.29,4.29,0,0,0,750.767,1479.55Z" transform="translate(-743.448 -1476.517)" fill="#282d33"/>
  </g>
  <g id="Group_704" data-name="Group 704" transform="translate(47.782 51.226)">
    <path id="Path_592" data-name="Path 592" d="M763.746,1479.684a1.517,1.517,0,0,1,0-3.033,4.274,4.274,0,1,0,0-8.548,1.517,1.517,0,0,1,0-3.033,7.307,7.307,0,1,1,0,14.614Z" transform="translate(-762.229 -1465.07)" fill="#282d33"/>
  </g>
  <g id="Group_705" data-name="Group 705" transform="translate(2.697 62.807)">
    <path id="Path_593" data-name="Path 593" d="M739.809,1487.322a7.308,7.308,0,1,1,0-14.615,1.517,1.517,0,0,1,0,3.033,4.275,4.275,0,1,0,0,8.549,1.517,1.517,0,0,1,0,3.033Z" transform="translate(-732.501 -1472.706)" fill="#282d33"/>
  </g>
  <g id="Group_706" data-name="Group 706" transform="translate(8.489 62.807)">
    <path id="Path_594" data-name="Path 594" d="M777.13,1475.739H737.837a1.517,1.517,0,0,1,0-3.033H777.13a1.517,1.517,0,0,1,0,3.033Z" transform="translate(-736.32 -1472.706)" fill="#282d33"/>
  </g>
  <g id="Group_707" data-name="Group 707" transform="translate(8.489 74.389)">
    <path id="Path_595" data-name="Path 595" d="M748.647,1483.376h-10.81a1.517,1.517,0,0,1,0-3.033h10.81a1.517,1.517,0,0,1,0,3.033Z" transform="translate(-736.32 -1480.343)" fill="#282d33"/>
  </g>
  <g id="Group_708" data-name="Group 708" transform="translate(37.988 51.226)">
    <path id="Path_596" data-name="Path 596" d="M767.082,1468.1h-9.794a1.517,1.517,0,0,1,0-3.033h9.794a1.517,1.517,0,0,1,0,3.033Z" transform="translate(-755.771 -1465.07)" fill="#282d33"/>
  </g>
</svg>
