<svg id="Group_1" data-name="Group 1" xmlns="http://www.w3.org/2000/svg" width="12.939" height="12.913" viewBox="0 0 12.939 12.913">
  <path id="Path_65" data-name="Path 65" d="M12.887,6.449c-.019.918-.034,1.837-.058,2.755a4.247,4.247,0,0,1-.285,1.47,3.244,3.244,0,0,1-2.7,2.117,14.629,14.629,0,0,1-2.059.121q-2.067.007-4.133-.039a3.94,3.94,0,0,1-1.924-.5A3.25,3.25,0,0,1,.071,9.9,15.682,15.682,0,0,1-.05,7.822c-.01-1.373.01-2.741.039-4.114A3.892,3.892,0,0,1,.618,1.561,3.41,3.41,0,0,1,3.2.082,17.715,17.715,0,0,1,5.031,0Q7.1,0,9.164.039a3.94,3.94,0,0,1,1.924.5,3.256,3.256,0,0,1,1.653,2.47c.1.72.1,1.455.126,2.185.015.416,0,.831,0,1.252ZM6.4,11.781v-.034c.537,0,1.078.015,1.615,0a14.543,14.543,0,0,0,1.658-.111,2.094,2.094,0,0,0,1.818-1.552,3.746,3.746,0,0,0,.155-.981q.044-1.74.044-3.481c0-.735-.019-1.474-.077-2.209a2.246,2.246,0,0,0-.938-1.745,2.735,2.735,0,0,0-1.6-.464c-1.789-.015-3.572-.01-5.361,0a2.826,2.826,0,0,0-1.46.377A2.221,2.221,0,0,0,1.188,3.408c-.058.72-.073,1.445-.077,2.171,0,1.18.015,2.354.039,3.534a2.818,2.818,0,0,0,.445,1.581,2.215,2.215,0,0,0,1.764.967C4.379,11.737,5.394,11.747,6.4,11.781Z" transform="translate(0.052 0)" fill="#3c96d5"/>
  <path id="Path_66" data-name="Path 66" d="M71.445,68.238a3.324,3.324,0,1,1-3.278-3.34A3.317,3.317,0,0,1,71.445,68.238Zm-3.316-2.171a2.151,2.151,0,1,0,2.146,2.166A2.148,2.148,0,0,0,68.129,66.068Z" transform="translate(-61.663 -61.76)" fill="#3c96d5"/>
  <path id="Path_67" data-name="Path 67" d="M189.677,46.2a.778.778,0,1,1-.778.778A.763.763,0,0,1,189.677,46.2Z" transform="translate(-179.765 -43.966)" fill="#3c96d5"/>
</svg>
