<svg xmlns="http://www.w3.org/2000/svg" viewBox="0 0 137 84"><defs><style>.a{fill:#00b5e6;}.b{fill:#282d33;}</style></defs><path class="a" d="M98.4772,31.5822A13.3483,13.3483,0,1,1,81.023,14.1282V9.2075H59.535V31.5822H37.16V53.07H59.535V75.4449H81.023V53.07h22.3745V31.5822Z"/><path class="b" d="M86.1546,82.5579H54.4034a1.9812,1.9812,0,0,1-1.981-1.981V60.1829H32.0284a1.9812,1.9812,0,0,1-1.981-1.981V26.4511a1.9812,1.9812,0,0,1,1.981-1.981h20.394V4.0761a1.9812,1.9812,0,0,1,1.981-1.981H86.1546a1.9812,1.9812,0,0,1,1.9811,1.981V7.4056a1.9811,1.9811,0,0,1-3.9621,0V6.0571H56.3844v20.394a1.9812,1.9812,0,0,1-1.981,1.981H34.0094V56.2209h20.394a1.9812,1.9812,0,0,1,1.981,1.981v20.394H84.1736V58.2019a1.9812,1.9812,0,0,1,1.981-1.981h20.3936V28.4321H105.2a1.981,1.981,0,0,1,0-3.962h3.33a1.9812,1.9812,0,0,1,1.981,1.981V58.2019a1.9812,1.9812,0,0,1-1.981,1.981H88.1357v20.394A1.9812,1.9812,0,0,1,86.1546,82.5579Z"/><path class="b" d="M86.1546,41.78a15.3291,15.3291,0,1,1,15.3291-15.3291A15.3467,15.3467,0,0,1,86.1546,41.78Zm0-26.6961a11.3671,11.3671,0,1,0,11.3671,11.367A11.38,11.38,0,0,0,86.1546,15.0841Z"/><path class="b" d="M84.9893,32.5974a1.9737,1.9737,0,0,1-1.4007-.58l-3.7912-3.7907a1.9811,1.9811,0,0,1,2.8012-2.8023l2.3907,2.3906L90.71,22.0939a1.9812,1.9812,0,1,1,2.8013,2.8023L86.39,32.0175A1.9728,1.9728,0,0,1,84.9893,32.5974Z"/></svg>