<svg xmlns="http://www.w3.org/2000/svg" viewBox="0 0 137 84"><defs><style>.a{fill:#00b5e6;}.b{fill:#282d33;}</style></defs><path class="a" d="M55.6706,41.1567a139.0394,139.0394,0,0,1-.1017,20.8A6.8784,6.8784,0,0,1,52.2732,67.34c-4.4071,2.655-8.6208,4.8572-12.1425,6.5635a2.8586,2.8586,0,0,1-4.0911-2.433C34.8238,51.4761,43.6807,38.18,51.1308,30.6517a1.6305,1.6305,0,0,1,2.7614.8563Z"/><path class="a" d="M81.33,41.1567a138.9825,138.9825,0,0,0,.1018,20.8A6.8787,6.8787,0,0,0,84.7267,67.34c4.4066,2.6549,8.6206,4.8571,12.1422,6.5633A2.8585,2.8585,0,0,0,100.96,71.47c1.2158-19.9943-7.6406-33.29-15.0906-40.8184a1.63,1.63,0,0,0-2.7614.8562Z"/><path class="b" d="M59.16,30.62A2.0633,2.0633,0,0,1,57.87,26.9451l1.6273-1.3012c2.1834-1.7461,3.4475-3.1741,3.4475-5.3069V2.063a2.0631,2.0631,0,0,1,4.1261,0V20.337c0,3.9842-2.4015,6.4545-4.9969,8.5293l-1.6274,1.3023A2.0542,2.0542,0,0,1,59.16,30.62Z"/><path class="b" d="M77.84,30.62a2.0531,2.0531,0,0,1-1.2872-.4513l-1.6274-1.3012c-2.5954-2.0759-4.9969-4.5462-4.9969-8.53V2.063a2.0631,2.0631,0,0,1,4.1261,0V20.337c0,2.1328,1.2641,3.5608,3.4475,5.308l1.6273,1.3A2.0633,2.0633,0,0,1,77.84,30.62Z"/><path class="b" d="M101.3331,83.7966a6.8,6.8,0,0,1-2.755-.5866,163.4892,163.4892,0,0,1-17.7926-9.2257,14.6777,14.6777,0,0,1-7.0584-11.4584,146.145,146.145,0,0,1-.0741-22.2785A5.7314,5.7314,0,0,0,71.35,35.2219a4.6976,4.6976,0,0,0-5.7,0,5.7743,5.7743,0,0,0-2.2972,5.1125,145.724,145.724,0,0,1-.08,22.1915,14.6777,14.6777,0,0,1-7.0584,11.4584A163.4892,163.4892,0,0,1,38.4219,83.21a6.7889,6.7889,0,0,1-9.4679-5.2189C24.4218,46.73,41.8721,28.1131,49.5854,21.56a6.6625,6.6625,0,0,1,10.5591,2.7454,32.43,32.43,0,0,1,1.0331,3.8284,2.0629,2.0629,0,0,1-4.038.8467,28.9044,28.9044,0,0,0-.8563-3.22,2.5339,2.5339,0,0,0-1.7525-1.5827,2.5,2.5,0,0,0-2.2742.5265C43.3259,32.2918,28.953,49.228,33.0371,77.3991A2.62,2.62,0,0,0,34.3759,79.33a2.65,2.65,0,0,0,2.3763.1064,159.1876,159.1876,0,0,0,17.3337-8.987,10.544,10.544,0,0,0,5.0727-8.2307,141.9273,141.9273,0,0,0,.0763-21.6253,9.9372,9.9372,0,0,1,3.8719-8.6206,8.7494,8.7494,0,0,1,10.7853-.0011,9.8978,9.8978,0,0,1,3.8784,8.5347,142.3492,142.3492,0,0,0,.0709,21.7123,10.544,10.544,0,0,0,5.0727,8.2307,159.1876,159.1876,0,0,0,17.3337,8.987,2.6635,2.6635,0,0,0,3.7151-2.0383c4.0841-28.17-10.2888-45.1062-19.22-52.6943a2.5039,2.5039,0,0,0-2.2742-.5265,2.5337,2.5337,0,0,0-1.753,1.5827,29.0011,29.0011,0,0,0-.8558,3.22,2.0629,2.0629,0,0,1-4.038-.8467,32.5,32.5,0,0,1,1.0326-3.8284,6.6629,6.6629,0,0,1,10.56-2.7454c7.7133,6.5534,25.1636,25.17,20.6314,56.43a6.8,6.8,0,0,1-6.7129,5.8065Z"/></svg>