<svg xmlns="http://www.w3.org/2000/svg" viewBox="0 0 137 84"><defs><style>.a{fill:#00b5e6;}.b{fill:#282d33;}</style></defs><rect class="a" x="13.4393" y="46.3997" width="119.0604" height="16.5475"/><path class="b" d="M125.6518,71.8863H103.8943a2.0909,2.0909,0,1,1,0-4.1818h19.6666V4.1818H60.0383V67.7045H79.7055a2.0909,2.0909,0,0,1,0,4.1818H57.9474a2.0911,2.0911,0,0,1-2.091-2.0909V2.0909A2.0911,2.0911,0,0,1,57.9474,0h67.7044a2.0911,2.0911,0,0,1,2.0909,2.0909V69.7954A2.0911,2.0911,0,0,1,125.6518,71.8863Z"/><path class="b" d="M57.9474,71.8863H44.364a2.0909,2.0909,0,1,1,0-4.1818H55.8564V20.53H33.3654L19.38,40.7414a2.09,2.09,0,0,1-1.72.9017H8.6822V67.7045h11.493a2.0909,2.0909,0,0,1,0,4.1818H6.5913A2.0911,2.0911,0,0,1,4.5,69.7954V39.5522a2.0911,2.0911,0,0,1,2.0909-2.0909h9.9732L30.55,17.25a2.09,2.09,0,0,1,1.72-.9017H57.9474a2.0911,2.0911,0,0,1,2.0909,2.0909V69.7954A2.0911,2.0911,0,0,1,57.9474,71.8863Z"/><polygon class="a" points="96.902 19.143 96.902 8.939 86.697 8.939 86.697 19.143 76.493 19.143 76.493 29.347 86.697 29.347 86.697 39.552 96.902 39.552 96.902 29.347 107.106 29.347 107.106 19.143 96.902 19.143"/><path class="b" d="M32.2693,83.98A14.1851,14.1851,0,1,1,46.4549,69.7954,14.2007,14.2007,0,0,1,32.2693,83.98Zm0-24.1883A10.0033,10.0033,0,1,0,42.2731,69.7954,10.0149,10.0149,0,0,0,32.2693,59.7916Z"/><path class="b" d="M91.8,83.98a14.1851,14.1851,0,1,1,14.1856-14.1845A14.2008,14.2008,0,0,1,91.8,83.98Zm0-24.1883a10.0033,10.0033,0,1,0,10.0037,10.0038A10.0149,10.0149,0,0,0,91.8,59.7916Z"/><polygon class="a" points="51.1 25.287 36.835 25.287 26.963 39.552 51.1 39.552 51.1 25.287"/><path class="b" d="M125.6518,48.4909H57.9474a2.091,2.091,0,1,1,0-4.1819h67.7044a2.091,2.091,0,0,1,0,4.1819Z"/></svg>