<svg xmlns="http://www.w3.org/2000/svg" viewBox="0 0 137 84"><defs><style>.a{fill:#00b5e6;}.b{fill:#282d33;}</style></defs><circle class="a" cx="68.5" cy="30.535" r="22.6508"/><path class="b" d="M52.7619,56.39a1.7538,1.7538,0,0,1-.9626-.2871A30.5358,30.5358,0,1,1,85.2053,56.1a1.761,1.761,0,1,1-1.93-2.9462,27.0134,27.0134,0,1,0-29.5472.0019,1.7614,1.7614,0,0,1-.9663,3.235Z"/><path class="b" d="M75.4767,84H61.5233l-3.8822-3.8826H50.118a5.07,5.07,0,0,1-5.064-5.0641v-2.81L56.1094,39.5565H80.89L91.946,72.2429v2.81a5.07,5.07,0,0,1-5.0645,5.0641H79.3589ZM62.9826,80.4778H74.0174L77.9,76.5952h8.9819a1.544,1.544,0,0,0,1.5424-1.5419V72.8226L78.3632,43.0787H58.6363l-10.06,29.7439v2.2307a1.5435,1.5435,0,0,0,1.5419,1.5419H59.1Z"/><path class="b" d="M79.6267,43.0787a1.7606,1.7606,0,0,1-1.2644-2.9865,13.733,13.733,0,1,0-19.7246,0,1.7611,1.7611,0,0,1-2.53,2.4508,17.2557,17.2557,0,1,1,24.7831,0A1.7542,1.7542,0,0,1,79.6267,43.0787Z"/><path class="b" d="M90.1863,74.2939c-.0463,0-.0931-.0019-.14-.0055a275.8737,275.8737,0,0,0-43.0928,0,1.761,1.761,0,1,1-.2761-3.5112,279.1149,279.1149,0,0,1,43.645,0,1.7611,1.7611,0,0,1-.1362,3.5167Z"/><path class="b" d="M68.5,9.6456a7.8628,7.8628,0,0,1-7.8414-7.0563,1.761,1.761,0,1,1,3.5029-.3668,4.3631,4.3631,0,0,0,8.677.0009,1.761,1.761,0,1,1,3.5029.3669A7.8628,7.8628,0,0,1,68.5,9.6456Z"/></svg>