<svg xmlns="http://www.w3.org/2000/svg" viewBox="0 0 137 84"><defs><style>.a{fill:#00b5e6;}.b{fill:#282d33;}</style></defs><circle class="a" cx="71.2595" cy="32.0245" r="26.0002"/><path class="b" d="M91.2719,83.8809a1.76,1.76,0,0,1-1.76-1.76V63.7747A25.8711,25.8711,0,0,1,94.602,49.06,25.3641,25.3641,0,0,0,98.76,41.4661c2.244-6.915,5.4069-24.0957-13.6389-34.268-.8111-.417-20.5764-10.3207-35.8742,3.7045a19.9817,19.9817,0,0,0-5.8743,9.4547,28.8988,28.8988,0,0,0-.7121,11.03c.055.4665.1365.9229.2181,1.383l.0266.15a13.51,13.51,0,0,1-1.9641,9.615l-4.2842,6.2249a.98.98,0,0,0-.04.5178,1.2459,1.2459,0,0,0,.6824.2759,8.4039,8.4039,0,0,1,2.21.5425,2.549,2.549,0,0,1,1.1507,3.71,2.5745,2.5745,0,0,1,.8267,3.2582c.0307.011.0637.0211.0994.0321A2.559,2.559,0,0,1,43.3952,60.04c-.3945,2.03-.4413,4.6485.6123,5.906a3.0191,3.0191,0,0,0,2.5222.9192l5.038-.4921a8.76,8.76,0,0,1,9.45,7.1038,39.9561,39.9561,0,0,1,.7319,8.6444,1.76,1.76,0,0,1-3.5194,0,36.5027,36.5027,0,0,0-.6654-7.9616,5.2391,5.2391,0,0,0-5.6557-4.2838l-5.2557.5078A6.4973,6.4973,0,0,1,41.31,68.206c-1.9329-2.3078-1.8481-5.7547-1.5081-8.0286a3.3064,3.3064,0,0,1-1.7862-1.7743,3.0653,3.0653,0,0,1-.0216-2.1529,2.96,2.96,0,0,1-1.0723-1.7578,2.8263,2.8263,0,0,1,.11-1.4261c-.0559-.0073-.1036-.0128-.1407-.0156l-.16-.022a4.2378,4.2378,0,0,1-3.2417-2.1373,4.4817,4.4817,0,0,1,.0119-3.7109l.1444-.252,4.3758-6.3569A9.9166,9.9166,0,0,0,39.4392,33.53l-.0262-.1466c-.093-.527-.1846-1.05-.2474-1.581a32.4067,32.4067,0,0,1,.81-12.3654A23.4934,23.4934,0,0,1,46.8683,8.3089c17.129-15.707,39.6639-4.3433,39.89-4.2269,22.013,11.7578,17.3137,32.4176,15.35,38.47a28.8149,28.8149,0,0,1-4.7127,8.649,22.6657,22.6657,0,0,0-4.3639,12.5552V82.1212A1.76,1.76,0,0,1,91.2719,83.8809ZM40.582,60.47l.0028.0009Z"/><path class="b" d="M74.8051,54.5638a6.0966,6.0966,0,0,1-3.5459-1.1373,6.1053,6.1053,0,0,1-8.8108-1.8734,6.1023,6.1023,0,0,1-7.2862-5.2937,6.1037,6.1037,0,0,1-4.5037-7.8,6.1036,6.1036,0,0,1-.9412-8.9579A6.1038,6.1038,0,0,1,52.5,20.9347a6.105,6.105,0,0,1,6.0274-6.6942,6.1033,6.1033,0,0,1,8.2283-3.6632,6.1052,6.1052,0,0,1,9.0074,0,6.1041,6.1041,0,0,1,8.2284,3.6632,6.1035,6.1035,0,0,1,6.0264,6.6942,6.1036,6.1036,0,0,1,2.7839,8.5665,6.1044,6.1044,0,0,1-.9412,8.9579,6.1061,6.1061,0,0,1-4.5042,7.8A6.1023,6.1023,0,0,1,80.07,51.5531a6.1076,6.1076,0,0,1-5.2649,3.0107ZM71.26,49.2032h0a1.76,1.76,0,0,1,1.438.7461,2.5819,2.5819,0,0,0,4.6439-.988,1.7595,1.7595,0,0,1,2.6271-1.1695A2.5817,2.5817,0,0,0,83.81,45.0011a1.76,1.76,0,0,1,1.9242-2.1373,2.5821,2.5821,0,0,0,2.3747-4.1114,1.76,1.76,0,0,1,.889-2.7358,2.5821,2.5821,0,0,0,.4962-4.7218,1.759,1.759,0,0,1-.3015-2.8595,2.5822,2.5822,0,0,0-1.4668-4.5165,1.76,1.76,0,0,1-1.4385-2.4911,2.5814,2.5814,0,0,0-3.1761-3.5285,1.76,1.76,0,0,1-2.3275-1.6909,2.5815,2.5815,0,0,0-4.3373-1.93,1.76,1.76,0,0,1-2.8132-.5994,2.5825,2.5825,0,0,0-4.7484.0019,1.76,1.76,0,0,1-2.8132.5966,2.5817,2.5817,0,0,0-4.3369,1.932,1.7593,1.7593,0,0,1-2.3275,1.69,2.5824,2.5824,0,0,0-3.177,3.5285,1.7592,1.7592,0,0,1-1.438,2.4911,2.5822,2.5822,0,0,0-1.4664,4.5165,1.7592,1.7592,0,0,1-.3011,2.8595,2.5819,2.5819,0,0,0,.4958,4.7218,1.7591,1.7591,0,0,1,.8891,2.7348,2.5824,2.5824,0,0,0,2.3755,4.1124,1.76,1.76,0,0,1,1.9233,2.1382,2.5817,2.5817,0,0,0,3.8415,2.79,1.7591,1.7591,0,0,1,2.6272,1.17,2.5818,2.5818,0,0,0,4.6443.9861A1.76,1.76,0,0,1,71.26,49.2032Z"/><path class="b" d="M63.7558,32.8336A6.0661,6.0661,0,0,1,62.41,32.68a1.7594,1.7594,0,1,1,.779-3.4314,2.3178,2.3178,0,0,0,1.4738-.1228,2.6592,2.6592,0,0,0,1.5905-1.8412,2.5037,2.5037,0,0,0-.1067-1.41,1.76,1.76,0,0,1,.2309-1.6534,1.8037,1.8037,0,0,1,1.5072-.7167l.1343.0092a3.6417,3.6417,0,0,0,.45-.0156,2.2428,2.2428,0,0,0,2.0182-1.7441,2.5324,2.5324,0,0,0-1.0957-2.7908c-2.4315-1.591-3.7733-3.6284-3.8809-5.8921a1.76,1.76,0,1,1,3.5157-.1668c.0522,1.1053.8234,2.1528,2.2917,3.1133a6.0392,6.0392,0,0,1,2.585,6.5851,5.7476,5.7476,0,0,1-4.0757,4.2131,5.9832,5.9832,0,0,1-.1311,1.1988A6.139,6.139,0,0,1,66.02,32.3726,5.8347,5.8347,0,0,1,63.7558,32.8336Z"/><path class="b" d="M75,24.388a10.7378,10.7378,0,0,1-3.3461-.5682,1.76,1.76,0,0,1,1.0952-3.3452,5.6432,5.6432,0,0,0,4.5216-.15c2.5378-1.3088,3.58-4.5743,3.5908-4.6073a1.76,1.76,0,0,1,3.3659,1.0274c-.0582.1906-1.46,4.6861-5.3153,6.6932A8.3708,8.3708,0,0,1,75,24.388Z"/><path class="b" d="M70.73,47.6131a1.761,1.761,0,0,1-1.652-1.1548c-1.6525-4.5083.3615-8.41,1.7088-10.3345a10.07,10.07,0,0,1,2.9841-2.8549,11.4144,11.4144,0,0,1,9.4592-.8752,7.694,7.694,0,0,1,7.2285-4.391,1.7593,1.7593,0,0,1-.1985,3.513A4.292,4.292,0,0,0,85.98,35.1194,1.7594,1.7594,0,0,1,83.44,36.25c-.0353-.0174-4.2343-2.1739-7.8347.0229a6.5772,6.5772,0,0,0-1.9352,1.87,7.6786,7.6786,0,0,0-1.2873,7.1038A1.7613,1.7613,0,0,1,70.73,47.6131Z"/><path class="b" d="M56.9925,46.3676a1.7587,1.7587,0,0,1-1.37-2.86c.2484-.308,6.191-7.519,15.44-4.3112a1.76,1.76,0,1,1-1.153,3.325c-6.8742-2.3792-11.3628,2.9713-11.5511,3.2A1.7621,1.7621,0,0,1,56.9925,46.3676Z"/><path class="b" d="M73.1055,37.8175a1.76,1.76,0,0,1-1.7515-1.6093,5.1047,5.1047,0,0,0-4.47-4.951,1.76,1.76,0,0,1,.33-3.5047,8.6369,8.6369,0,0,1,7.6469,8.155,1.76,1.76,0,0,1-1.6035,1.9036C73.2063,37.8157,73.1554,37.8175,73.1055,37.8175Z"/><path class="b" d="M62.7971,32.7236a1.7592,1.7592,0,0,1-.7483-.1677,14.9264,14.9264,0,0,1-4.714-3.6953,1.7594,1.7594,0,1,1,2.7421-2.2051,11.437,11.437,0,0,0,3.4772,2.7192,1.76,1.76,0,0,1-.757,3.3489Z"/></svg>