<svg id="Group_765" data-name="Group 765" xmlns="http://www.w3.org/2000/svg" width="61.19" height="75.657" viewBox="0 0 61.19 75.657">
  <g id="Group_711" data-name="Group 711" transform="translate(5.747 25.363)">
    <g id="Group_710" data-name="Group 710">
      <path id="Path_597" data-name="Path 597" d="M580.247,1464.833a7.536,7.536,0,0,1-7.242-5.461l-14.666,14.666a9.164,9.164,0,0,0,0,12.947,27.547,27.547,0,0,0,41.161-36.473A20.012,20.012,0,0,1,580.247,1464.833Z" transform="translate(-555.662 -1450.512)" fill="#00b5e6"/>
    </g>
  </g>
  <g id="Group_712" data-name="Group 712" transform="translate(28.53 3.659)">
    <path id="Path_598" data-name="Path 598" d="M592.535,1453.938a1.516,1.516,0,0,1-1.517-1.517,13.2,13.2,0,0,0-18.236-12.187,1.516,1.516,0,1,1-1.162-2.8,16.23,16.23,0,0,1,22.431,14.989A1.515,1.515,0,0,1,592.535,1453.938Z" transform="translate(-570.685 -1436.201)" fill="#282d33"/>
  </g>
  <g id="Group_713" data-name="Group 713" transform="translate(19.455 8.731)">
    <path id="Path_599" data-name="Path 599" d="M568.041,1459.308a1.515,1.515,0,0,1-1.329-.782,16.236,16.236,0,0,1,1.952-18.456,1.516,1.516,0,1,1,2.292,1.987,13.2,13.2,0,0,0-1.588,15,1.517,1.517,0,0,1-1.327,2.249Z" transform="translate(-564.701 -1439.546)" fill="#282d33"/>
  </g>
  <g id="Group_714" data-name="Group 714" transform="translate(18.692 25.46)">
    <path id="Path_600" data-name="Path 600" d="M568.3,1458.779a4.1,4.1,0,0,1,0-8.2,1.517,1.517,0,0,1,0,3.033,1.068,1.068,0,0,0,0,2.137,1.517,1.517,0,0,1,0,3.033Z" transform="translate(-564.198 -1450.576)" fill="#282d33"/>
  </g>
  <g id="Group_715" data-name="Group 715" transform="translate(26.062 26.767)">
    <path id="Path_601" data-name="Path 601" d="M572.422,1455.281a3.963,3.963,0,0,1-3.042-1.392,1.517,1.517,0,0,1,2.361-1.9.983.983,0,0,0,.911.241,1.516,1.516,0,0,1,.529,2.986A4.337,4.337,0,0,1,572.422,1455.281Z" transform="translate(-569.057 -1451.437)" fill="#282d33"/>
  </g>
  <g id="Group_716" data-name="Group 716" transform="translate(37.228 22.564)">
    <path id="Path_602" data-name="Path 602" d="M577.937,1456.869a1.517,1.517,0,0,1,0-3.033,1.068,1.068,0,1,0,0-2.137,1.517,1.517,0,0,1,0-3.033,4.1,4.1,0,1,1,0,8.2Z" transform="translate(-576.42 -1448.666)" fill="#282d33"/>
  </g>
  <g id="Group_717" data-name="Group 717" transform="translate(24.957 0)">
    <path id="Path_603" data-name="Path 603" d="M572.436,1441.8a4.1,4.1,0,0,1-1.574-7.891,1.517,1.517,0,0,1,1.16,2.8,1.069,1.069,0,0,0,.818,1.975,1.516,1.516,0,1,1,1.162,2.8A4.085,4.085,0,0,1,572.436,1441.8Z" transform="translate(-568.329 -1433.788)" fill="#282d33"/>
  </g>
  <g id="Group_718" data-name="Group 718" transform="translate(3.914 18.363)">
    <path id="Path_604" data-name="Path 604" d="M578.445,1503.19a33.077,33.077,0,0,1-23.547-9.755,1.516,1.516,0,0,1,2.144-2.144,30.267,30.267,0,0,0,42.8-42.8,1.517,1.517,0,0,1,2.145-2.146,33.3,33.3,0,0,1-23.547,56.85Z" transform="translate(-554.454 -1445.896)" fill="#282d33"/>
  </g>
  <g id="Group_719" data-name="Group 719" transform="translate(0 44.38)">
    <path id="Path_605" data-name="Path 605" d="M557.3,1485.018a1.506,1.506,0,0,1-1.072-.445,14.92,14.92,0,0,1,0-21.078,1.516,1.516,0,0,1,2.145,2.145,11.885,11.885,0,0,0,0,16.789,1.517,1.517,0,0,1-1.072,2.589Z" transform="translate(-551.873 -1463.051)" fill="#282d33"/>
  </g>
  <g id="Group_720" data-name="Group 720" transform="translate(13.346 31.026)">
    <path id="Path_606" data-name="Path 606" d="M566.112,1476.213a1.51,1.51,0,0,1-1.072-.443,14.9,14.9,0,0,1,0-21.079,1.516,1.516,0,0,1,2.144,2.145,11.87,11.87,0,0,0,0,16.789,1.516,1.516,0,0,1-1.072,2.589Z" transform="translate(-560.673 -1454.246)" fill="#282d33"/>
  </g>
  <g id="Group_721" data-name="Group 721" transform="translate(50.38 19.881)">
    <path id="Path_607" data-name="Path 607" d="M585.092,1446.9" transform="translate(-585.092 -1446.897)" fill="none" stroke="#282d33" stroke-linecap="round" stroke-linejoin="round" stroke-width="2"/>
  </g>
  <g id="Group_722" data-name="Group 722" transform="translate(3.914 29.602)">
    <path id="Path_608" data-name="Path 608" d="M555.971,1471.118a1.517,1.517,0,0,1-1.072-2.589l14.778-14.778a1.516,1.516,0,0,1,2.144,2.145l-14.778,14.778A1.513,1.513,0,0,1,555.971,1471.118Z" transform="translate(-554.454 -1453.307)" fill="#282d33"/>
  </g>
  <g id="Group_723" data-name="Group 723" transform="translate(17.268 18.363)">
    <path id="Path_609" data-name="Path 609" d="M580.573,1487.059a23.782,23.782,0,0,1-16.869-6.976,1.517,1.517,0,1,1,2.144-2.146,20.825,20.825,0,0,0,29.451-29.451,1.517,1.517,0,0,1,2.145-2.146,23.848,23.848,0,0,1-16.871,40.719Z" transform="translate(-563.259 -1445.896)" fill="#282d33"/>
  </g>
  <g id="Group_724" data-name="Group 724" transform="translate(21.276 18.363)">
    <path id="Path_610" data-name="Path 610" d="M574.958,1468.734a9.065,9.065,0,0,1-9.056-9.054,1.517,1.517,0,0,1,3.033,0,6.029,6.029,0,0,0,6.022,6.021,18.432,18.432,0,0,0,18.531-18.289,1.517,1.517,0,0,1,3.033,0A21.469,21.469,0,0,1,574.958,1468.734Z" transform="translate(-565.902 -1445.896)" fill="#282d33"/>
  </g>
</svg>
