<svg id="Group_763" data-name="Group 763" xmlns="http://www.w3.org/2000/svg" width="62.638" height="64.975" viewBox="0 0 62.638 64.975">
  <g id="Group_646" data-name="Group 646" transform="translate(0 12.597)">
    <rect id="Rectangle_392" data-name="Rectangle 392" width="62.638" height="38.732" fill="#00b5e6"/>
  </g>
  <g id="Group_647" data-name="Group 647" transform="translate(26.561 3.241)">
    <path id="Path_539" data-name="Path 539" d="M660.069,1445.723a4.763,4.763,0,0,1-4.758-4.759,1.517,1.517,0,0,1,3.033,0,1.725,1.725,0,1,0,3.45,0,1.517,1.517,0,0,1,3.033,0A4.764,4.764,0,0,1,660.069,1445.723Z" transform="translate(-655.311 -1439.447)" fill="#282d33"/>
  </g>
  <g id="Group_648" data-name="Group 648" transform="translate(36.287)">
    <path id="Path_540" data-name="Path 540" d="M669.726,1440.343h-6.485a1.517,1.517,0,0,1,0-3.033h6.485a1.517,1.517,0,0,1,0,3.033Z" transform="translate(-661.724 -1437.31)" fill="#282d33"/>
  </g>
  <g id="Group_649" data-name="Group 649" transform="translate(36.287)">
    <path id="Path_541" data-name="Path 541" d="M669.726,1458.533h-6.485a1.517,1.517,0,0,1,0-3.033h4.968v-6.462a5.249,5.249,0,0,1,5.243-5.244,1.725,1.725,0,1,0,0-3.45h-3.726a1.517,1.517,0,0,1,0-3.033h3.726a4.758,4.758,0,1,1,0,9.517,2.212,2.212,0,0,0-2.21,2.211v7.979A1.517,1.517,0,0,1,669.726,1458.533Z" transform="translate(-661.724 -1437.31)" fill="#282d33"/>
  </g>
  <g id="Group_650" data-name="Group 650" transform="translate(16.833)">
    <path id="Path_542" data-name="Path 542" d="M656.9,1440.343h-6.485a1.517,1.517,0,0,1,0-3.033H656.9a1.517,1.517,0,0,1,0,3.033Z" transform="translate(-648.897 -1437.31)" fill="#282d33"/>
  </g>
  <g id="Group_651" data-name="Group 651" transform="translate(9.864)">
    <path id="Path_543" data-name="Path 543" d="M659.272,1458.533h-6.485a1.517,1.517,0,0,1-1.517-1.517v-7.979a2.212,2.212,0,0,0-2.21-2.211,4.758,4.758,0,1,1,0-9.517h3.726a1.517,1.517,0,0,1,0,3.033h-3.726a1.725,1.725,0,1,0,0,3.45,5.25,5.25,0,0,1,5.243,5.244v6.462h4.968a1.517,1.517,0,0,1,0,3.033Z" transform="translate(-644.302 -1437.31)" fill="#282d33"/>
  </g>
  <g id="Group_652" data-name="Group 652" transform="translate(36.287 18.19)">
    <path id="Path_544" data-name="Path 544" d="M669.726,1452.337h-6.485a1.517,1.517,0,0,1,0-3.033h6.485a1.517,1.517,0,0,1,0,3.033Z" transform="translate(-661.724 -1449.304)" fill="#282d33"/>
  </g>
  <g id="Group_653" data-name="Group 653" transform="translate(16.833 18.19)">
    <path id="Path_545" data-name="Path 545" d="M656.9,1452.337h-6.485a1.517,1.517,0,0,1,0-3.033H656.9a1.517,1.517,0,0,1,0,3.033Z" transform="translate(-648.897 -1449.304)" fill="#282d33"/>
  </g>
  <g id="Group_654" data-name="Group 654" transform="translate(33.044)">
    <path id="Path_546" data-name="Path 546" d="M661.1,1443.584a1.516,1.516,0,0,1-1.517-1.517,4.764,4.764,0,0,1,4.759-4.758,1.517,1.517,0,0,1,0,3.033,1.726,1.726,0,0,0-1.726,1.724A1.516,1.516,0,0,1,661.1,1443.584Z" transform="translate(-659.586 -1437.31)" fill="#282d33"/>
  </g>
  <g id="Group_655" data-name="Group 655" transform="translate(23.318)">
    <path id="Path_547" data-name="Path 547" d="M657.932,1443.584a1.515,1.515,0,0,1-1.517-1.517,1.727,1.727,0,0,0-1.726-1.724,1.517,1.517,0,0,1,0-3.033,4.764,4.764,0,0,1,4.759,4.758A1.516,1.516,0,0,1,657.932,1443.584Z" transform="translate(-653.173 -1437.31)" fill="#282d33"/>
  </g>
  <g id="Group_656" data-name="Group 656" transform="translate(26.561 21.431)">
    <path id="Path_548" data-name="Path 548" d="M660.069,1457.717a4.763,4.763,0,0,1-4.758-4.759,1.517,1.517,0,0,1,3.033,0,1.725,1.725,0,1,0,3.45,0,1.517,1.517,0,0,1,3.033,0A4.764,4.764,0,0,1,660.069,1457.717Z" transform="translate(-655.311 -1451.441)" fill="#282d33"/>
  </g>
  <g id="Group_657" data-name="Group 657" transform="translate(33.044 18.19)">
    <path id="Path_549" data-name="Path 549" d="M661.1,1455.578a1.516,1.516,0,0,1-1.517-1.517,4.764,4.764,0,0,1,4.759-4.758,1.517,1.517,0,0,1,0,3.033,1.727,1.727,0,0,0-1.726,1.725A1.516,1.516,0,0,1,661.1,1455.578Z" transform="translate(-659.586 -1449.304)" fill="#282d33"/>
  </g>
  <g id="Group_658" data-name="Group 658" transform="translate(23.318 18.19)">
    <path id="Path_550" data-name="Path 550" d="M657.932,1455.578a1.515,1.515,0,0,1-1.517-1.517,1.727,1.727,0,0,0-1.726-1.725,1.517,1.517,0,0,1,0-3.033,4.764,4.764,0,0,1,4.759,4.758A1.516,1.516,0,0,1,657.932,1455.578Z" transform="translate(-653.173 -1449.304)" fill="#282d33"/>
  </g>
  <g id="Group_659" data-name="Group 659" transform="translate(36.287 19.079)">
    <path id="Path_551" data-name="Path 551" d="M669.726,1452.923h-6.485a1.517,1.517,0,0,1,0-3.033h6.485a1.517,1.517,0,0,1,0,3.033Z" transform="translate(-661.724 -1449.89)" fill="#282d33"/>
  </g>
  <g id="Group_660" data-name="Group 660" transform="translate(36.287 19.079)">
    <path id="Path_552" data-name="Path 552" d="M669.726,1471.113h-6.485a1.517,1.517,0,0,1,0-3.033h4.968v-6.464a5.248,5.248,0,0,1,5.243-5.243,1.725,1.725,0,1,0,0-3.45h-3.726a1.517,1.517,0,0,1,0-3.033h3.726a4.758,4.758,0,1,1,0,9.517,2.211,2.211,0,0,0-2.21,2.21v7.98A1.516,1.516,0,0,1,669.726,1471.113Z" transform="translate(-661.724 -1449.89)" fill="#282d33"/>
  </g>
  <g id="Group_661" data-name="Group 661" transform="translate(16.833 19.079)">
    <path id="Path_553" data-name="Path 553" d="M656.9,1452.923h-6.485a1.517,1.517,0,0,1,0-3.033H656.9a1.517,1.517,0,0,1,0,3.033Z" transform="translate(-648.897 -1449.89)" fill="#282d33"/>
  </g>
  <g id="Group_662" data-name="Group 662" transform="translate(9.864 19.079)">
    <path id="Path_554" data-name="Path 554" d="M659.272,1471.113h-6.485a1.516,1.516,0,0,1-1.517-1.517v-7.98a2.211,2.211,0,0,0-2.21-2.21,4.758,4.758,0,1,1,0-9.517h3.726a1.517,1.517,0,0,1,0,3.033h-3.726a1.725,1.725,0,1,0,0,3.45,5.249,5.249,0,0,1,5.243,5.243v6.464h4.968a1.517,1.517,0,0,1,0,3.033Z" transform="translate(-644.302 -1449.89)" fill="#282d33"/>
  </g>
  <g id="Group_663" data-name="Group 663" transform="translate(36.287 37.269)">
    <path id="Path_555" data-name="Path 555" d="M669.726,1464.917h-6.485a1.517,1.517,0,0,1,0-3.033h6.485a1.517,1.517,0,0,1,0,3.033Z" transform="translate(-661.724 -1461.884)" fill="#282d33"/>
  </g>
  <g id="Group_664" data-name="Group 664" transform="translate(16.833 37.269)">
    <path id="Path_556" data-name="Path 556" d="M656.9,1464.917h-6.485a1.517,1.517,0,0,1,0-3.033H656.9a1.517,1.517,0,0,1,0,3.033Z" transform="translate(-648.897 -1461.884)" fill="#282d33"/>
  </g>
  <g id="Group_665" data-name="Group 665" transform="translate(26.561 40.51)">
    <path id="Path_557" data-name="Path 557" d="M660.069,1470.3a4.763,4.763,0,0,1-4.758-4.759,1.517,1.517,0,0,1,3.033,0,1.725,1.725,0,1,0,3.45,0,1.517,1.517,0,0,1,3.033,0A4.764,4.764,0,0,1,660.069,1470.3Z" transform="translate(-655.311 -1464.021)" fill="#282d33"/>
  </g>
  <g id="Group_666" data-name="Group 666" transform="translate(33.044 37.269)">
    <path id="Path_558" data-name="Path 558" d="M661.1,1468.158a1.516,1.516,0,0,1-1.517-1.517,4.764,4.764,0,0,1,4.759-4.758,1.517,1.517,0,0,1,0,3.033,1.728,1.728,0,0,0-1.726,1.724A1.516,1.516,0,0,1,661.1,1468.158Z" transform="translate(-659.586 -1461.884)" fill="#282d33"/>
  </g>
  <g id="Group_667" data-name="Group 667" transform="translate(23.318 37.269)">
    <path id="Path_559" data-name="Path 559" d="M657.932,1468.158a1.515,1.515,0,0,1-1.517-1.517,1.728,1.728,0,0,0-1.726-1.724,1.517,1.517,0,0,1,0-3.033,4.764,4.764,0,0,1,4.759,4.758A1.516,1.516,0,0,1,657.932,1468.158Z" transform="translate(-653.173 -1461.884)" fill="#282d33"/>
  </g>
  <g id="Group_668" data-name="Group 668" transform="translate(36.287 37.269)">
    <path id="Path_560" data-name="Path 560" d="M669.726,1464.917h-6.485a1.517,1.517,0,0,1,0-3.033h6.485a1.517,1.517,0,0,1,0,3.033Z" transform="translate(-661.724 -1461.884)" fill="#282d33"/>
  </g>
  <g id="Group_669" data-name="Group 669" transform="translate(36.287 37.269)">
    <path id="Path_561" data-name="Path 561" d="M669.726,1483.106h-6.485a1.517,1.517,0,0,1,0-3.033h4.968v-6.462a5.248,5.248,0,0,1,5.243-5.243,1.725,1.725,0,1,0,0-3.45h-3.726a1.517,1.517,0,0,1,0-3.033h3.726a4.758,4.758,0,1,1,0,9.517,2.212,2.212,0,0,0-2.21,2.21v7.979A1.516,1.516,0,0,1,669.726,1483.106Z" transform="translate(-661.724 -1461.884)" fill="#282d33"/>
  </g>
  <g id="Group_670" data-name="Group 670" transform="translate(16.833 37.269)">
    <path id="Path_562" data-name="Path 562" d="M656.9,1464.917h-6.485a1.517,1.517,0,0,1,0-3.033H656.9a1.517,1.517,0,0,1,0,3.033Z" transform="translate(-648.897 -1461.884)" fill="#282d33"/>
  </g>
  <g id="Group_671" data-name="Group 671" transform="translate(9.864 37.269)">
    <path id="Path_563" data-name="Path 563" d="M659.272,1483.106h-6.485a1.516,1.516,0,0,1-1.517-1.517v-7.979a2.212,2.212,0,0,0-2.21-2.21,4.758,4.758,0,1,1,0-9.517h3.726a1.517,1.517,0,0,1,0,3.033h-3.726a1.725,1.725,0,1,0,0,3.45,5.249,5.249,0,0,1,5.243,5.243v6.462h4.968a1.517,1.517,0,0,1,0,3.033Z" transform="translate(-644.302 -1461.884)" fill="#282d33"/>
  </g>
  <g id="Group_672" data-name="Group 672" transform="translate(36.287 55.457)">
    <path id="Path_564" data-name="Path 564" d="M669.726,1476.91h-6.485a1.517,1.517,0,0,1,0-3.033h6.485a1.517,1.517,0,0,1,0,3.033Z" transform="translate(-661.724 -1473.877)" fill="#282d33"/>
  </g>
  <g id="Group_673" data-name="Group 673" transform="translate(16.833 55.457)">
    <path id="Path_565" data-name="Path 565" d="M656.9,1476.91h-6.485a1.517,1.517,0,0,1,0-3.033H656.9a1.517,1.517,0,0,1,0,3.033Z" transform="translate(-648.897 -1473.877)" fill="#282d33"/>
  </g>
  <g id="Group_674" data-name="Group 674" transform="translate(26.561 58.702)">
    <path id="Path_566" data-name="Path 566" d="M660.069,1482.29a4.763,4.763,0,0,1-4.758-4.757,1.517,1.517,0,0,1,3.033,0,1.725,1.725,0,0,0,3.45,0,1.517,1.517,0,0,1,3.033,0A4.764,4.764,0,0,1,660.069,1482.29Z" transform="translate(-655.311 -1476.016)" fill="#282d33"/>
  </g>
  <g id="Group_675" data-name="Group 675" transform="translate(33.044 55.457)">
    <path id="Path_567" data-name="Path 567" d="M661.1,1480.154a1.517,1.517,0,0,1-1.517-1.517,4.766,4.766,0,0,1,4.759-4.761,1.517,1.517,0,0,1,0,3.033,1.728,1.728,0,0,0-1.726,1.728A1.517,1.517,0,0,1,661.1,1480.154Z" transform="translate(-659.586 -1473.877)" fill="#282d33"/>
  </g>
  <g id="Group_676" data-name="Group 676" transform="translate(23.318 55.457)">
    <path id="Path_568" data-name="Path 568" d="M657.932,1480.154a1.516,1.516,0,0,1-1.517-1.517,1.729,1.729,0,0,0-1.726-1.728,1.517,1.517,0,0,1,0-3.033,4.765,4.765,0,0,1,4.759,4.761A1.517,1.517,0,0,1,657.932,1480.154Z" transform="translate(-653.173 -1473.877)" fill="#282d33"/>
  </g>
</svg>
