<svg xmlns="http://www.w3.org/2000/svg" width="35.316" height="23.377" viewBox="0 0 35.316 23.377">
  <g id="Group_826" data-name="Group 826" transform="translate(-1683.955 -840.506)">
    <g id="Group_823" data-name="Group 823">
      <g id="Group_821" data-name="Group 821">
        <path id="Path_654" data-name="Path 654" d="M1716.7,863.883h-30.171a2.575,2.575,0,0,1-2.572-2.572V843.078a2.575,2.575,0,0,1,2.572-2.572H1716.7a2.576,2.576,0,0,1,2.573,2.572v18.233A2.576,2.576,0,0,1,1716.7,863.883Zm-30.171-21.6a.8.8,0,0,0-.8.8v18.233a.8.8,0,0,0,.8.8H1716.7a.8.8,0,0,0,.8-.8V843.078a.8.8,0,0,0-.8-.8Z" fill="#282d33"/>
      </g>
      <g id="Group_822" data-name="Group 822">
        <path id="Path_655" data-name="Path 655" d="M1701.613,853.118a.931.931,0,0,1-.488-.139l-16.054-9.992a.924.924,0,0,1,.977-1.569l15.565,9.688,15.566-9.688a.924.924,0,0,1,.976,1.569l-16.053,9.992A.937.937,0,0,1,1701.613,853.118Z" fill="#282d33"/>
      </g>
    </g>
    <g id="Group_825" data-name="Group 825">
      <g id="Group_824" data-name="Group 824">
        <path id="Path_656" data-name="Path 656" d="M1700.481,846.248v-.627a1.183,1.183,0,0,1,1.2-1.18,1.168,1.168,0,0,1,1.18,1.18v.608a8.373,8.373,0,0,1,1.788.394,1.55,1.55,0,0,1,1.181,1.413,1.126,1.126,0,0,1-1.145,1.18,7.067,7.067,0,0,1-1.466-.429,5.224,5.224,0,0,0-1.538-.233c-1,0-1.466.251-1.466.752,0,.769.983,1,2.127,1.466,1.592.644,3.577,1.556,3.577,3.971a3.313,3.313,0,0,1-3.058,3.415v.608a1.169,1.169,0,0,1-1.18,1.181,1.2,1.2,0,0,1-1.2-1.181v-.589a7.516,7.516,0,0,1-1.842-.394,1.55,1.55,0,0,1-1.181-1.413,1.126,1.126,0,0,1,1.144-1.18,7.057,7.057,0,0,1,1.467.429,5.637,5.637,0,0,0,1.61.233c1,0,1.556-.359,1.556-1.092,0-.894-1.216-1.359-2.45-1.842-1.539-.608-3.274-1.306-3.274-3.612C1697.511,847.8,1698.477,846.587,1700.481,846.248Z" fill="#00b5e6"/>
      </g>
    </g>
  </g>
</svg>
