<svg xmlns="http://www.w3.org/2000/svg" width="28.242" height="41.521" viewBox="0 0 28.242 41.521">
  <g id="Group_1502" data-name="Group 1502" transform="translate(-770.796 -327.354)">
    <ellipse id="Ellipse_121" data-name="Ellipse 121" cx="13.367" cy="13.367" rx="13.367" ry="13.367" transform="translate(770.796 335.595)" fill="#00b5e6"/>
    <path id="Path_581" data-name="Path 581" d="M754.488,1465.739a9.7,9.7,0,0,1-6.877-2.848.757.757,0,0,1,1.07-1.07,8.184,8.184,0,0,0,5.807,2.4.757.757,0,1,1,0,1.513Z" transform="translate(36.017 -1111.314)" fill="#fff"/>
    <path id="Path_582" data-name="Path 582" d="M740.414,1434.576a.757.757,0,0,1-.536-1.292,8.866,8.866,0,0,1,2.89-1.933.757.757,0,1,1,.58,1.4,7.355,7.355,0,0,0-2.4,1.6A.755.755,0,0,1,740.414,1434.576Z" transform="translate(37.899 -1103.939)" fill="#fff"/>
    <path id="Path_583" data-name="Path 583" d="M737.258,1441.759a.757.757,0,0,1-.757-.757,8.865,8.865,0,0,1,.677-3.41.757.757,0,0,1,1.4.58,7.357,7.357,0,0,0-.561,2.831A.756.756,0,0,1,737.258,1441.759Z" transform="translate(38.667 -1105.358)" fill="#fff"/>
    <path id="Path_584" data-name="Path 584" d="M758.6,1441.759a.757.757,0,0,1-.757-.757,7.361,7.361,0,0,0-.561-2.831.757.757,0,1,1,1.4-.58,8.858,8.858,0,0,1,.676,3.41A.757.757,0,0,1,758.6,1441.759Z" transform="translate(33.623 -1105.358)" fill="#fff"/>
    <path id="Path_585" data-name="Path 585" d="M754.8,1434.576a.755.755,0,0,1-.536-.222,7.35,7.35,0,0,0-2.4-1.6.757.757,0,1,1,.579-1.4,8.854,8.854,0,0,1,2.889,1.933.757.757,0,0,1-.535,1.292Z" transform="translate(35.042 -1103.939)" fill="#fff"/>
    <path id="Path_586" data-name="Path 586" d="M745.409,1455.913a8.9,8.9,0,0,1-8.908-8.907.757.757,0,0,1,1.513,0,7.4,7.4,0,0,0,4.565,6.833,7.4,7.4,0,0,0,9.664-4,7.355,7.355,0,0,0,.561-2.83.757.757,0,0,1,1.513,0,8.9,8.9,0,0,1-8.908,8.907Z" transform="translate(38.667 -1107.579)" fill="#fff"/>
    <path id="Path_587" data-name="Path 587" d="M758.8,1446.546a.756.756,0,0,1-.757-.757v-3.783a.757.757,0,0,1,1.513,0v3.783A.756.756,0,0,1,758.8,1446.546Z" transform="translate(33.424 -1106.362)" fill="#fff"/>
    <path id="Path_588" data-name="Path 588" d="M737.258,1446.546a.756.756,0,0,1-.757-.757v-3.783a.757.757,0,0,1,1.513,0v3.783A.756.756,0,0,1,737.258,1446.546Z" transform="translate(38.667 -1106.362)" fill="#fff"/>
    <path id="Path_589" data-name="Path 589" d="M746.177,1461.143a.754.754,0,0,1-.535-.222l-5.763-5.763a.757.757,0,1,1,1.07-1.07l5.763,5.763a.757.757,0,0,1-.535,1.292Z" transform="translate(37.899 -1109.432)" fill="#fff"/>
    <path id="Path_590" data-name="Path 590" d="M748.031,1461.143a.757.757,0,0,1-.535-1.292l5.764-5.763a.757.757,0,0,1,1.07,1.07l-5.764,5.763A.751.751,0,0,1,748.031,1461.143Z" transform="translate(36.045 -1109.432)" fill="#fff"/>
    <path id="Path_591" data-name="Path 591" d="M747.1,1483.82a3.652,3.652,0,1,1,3.652-3.652A3.656,3.656,0,0,1,747.1,1483.82Zm0-5.79a2.138,2.138,0,1,0,2.139,2.138A2.14,2.14,0,0,0,747.1,1478.031Z" transform="translate(36.977 -1114.945)" fill="#fff"/>
    <path id="Path_592" data-name="Path 592" d="M762.986,1472.361a.757.757,0,0,1,0-1.513,2.132,2.132,0,0,0,0-4.265.757.757,0,0,1,0-1.513,3.646,3.646,0,1,1,0,7.291Z" transform="translate(32.406 -1112.159)" fill="#fff"/>
    <path id="Path_593" data-name="Path 593" d="M736.147,1480a3.646,3.646,0,1,1,0-7.292.757.757,0,1,1,0,1.513,2.133,2.133,0,1,0,0,4.265.757.757,0,1,1,0,1.513Z" transform="translate(39.641 -1114.017)" fill="#fff"/>
    <path id="Path_594" data-name="Path 594" d="M756.681,1474.219h-19.6a.757.757,0,1,1,0-1.513h19.6a.757.757,0,0,1,0,1.513Z" transform="translate(38.711 -1114.017)" fill="#fff"/>
    <path id="Path_595" data-name="Path 595" d="M742.47,1481.856h-5.393a.757.757,0,1,1,0-1.513h5.393a.757.757,0,0,1,0,1.513Z" transform="translate(38.711 -1115.876)" fill="#fff"/>
    <path id="Path_596" data-name="Path 596" d="M761.414,1466.583h-4.886a.757.757,0,0,1,0-1.513h4.886a.757.757,0,1,1,0,1.513Z" transform="translate(33.978 -1112.159)" fill="#fff"/>
  </g>
</svg>
